<?xml version="1.0" encoding="UTF-8" standalone="no"?>
<svg
   xmlns:dc="http://purl.org/dc/elements/1.1/"
   xmlns:cc="http://creativecommons.org/ns#"
   xmlns:rdf="http://www.w3.org/1999/02/22-rdf-syntax-ns#"
   xmlns:svg="http://www.w3.org/2000/svg"
   xmlns="http://www.w3.org/2000/svg"
   version="1.1"
   id="svg2"
   viewBox="0 0 744.09448819 1052.3622047"
   height="297mm"
   width="210mm">
  <defs
     id="defs4">
    <clipPath
       clipPathUnits="userSpaceOnUse"
       id="clipPath8403">
      <path
         d="m 122.797,721.36 372.359,0 0,-129.259 -372.359,0 0,129.259 z"
         id="path8405" />
    </clipPath>
    <clipPath
       clipPathUnits="userSpaceOnUse"
       id="clipPath8415">
      <path
         d="m 122.797,721.36 372.359,0 0,-129.259 -372.359,0 0,129.259 z"
         id="path8417" />
    </clipPath>
    <clipPath
       clipPathUnits="userSpaceOnUse"
       id="clipPath8567">
      <path
         d="m 182.569,661.018 13.098,0 0,30.714 -13.098,0 0,-30.714 z"
         id="path8569" />
    </clipPath>
    <clipPath
       clipPathUnits="userSpaceOnUse"
       id="clipPath8579">
      <path
         d="m 161.438,661.018 12.261,0 0,30.714 -12.261,0 0,-30.714 z"
         id="path8581" />
    </clipPath>
    <clipPath
       clipPathUnits="userSpaceOnUse"
       id="clipPath8603">
      <path
         d="m 290.821,667.061 7.944,0 0,18.627 -7.944,0 0,-18.627 z"
         id="path8605" />
    </clipPath>
    <clipPath
       clipPathUnits="userSpaceOnUse"
       id="clipPath8615">
      <path
         d="m 278.006,667.061 7.436,0 0,18.627 -7.436,0 0,-18.627 z"
         id="path8617" />
    </clipPath>
  </defs>
  <metadata
     id="metadata7">
    <rdf:RDF>
      <cc:Work
         rdf:about="">
        <dc:format>image/svg+xml</dc:format>
        <dc:type
           rdf:resource="http://purl.org/dc/dcmitype/StillImage" />
        <dc:title></dc:title>
      </cc:Work>
    </rdf:RDF>
  </metadata>
  <g
     id="layer1">
    <path
       id="path8433"
       style="fill:#e9e9e9;fill-opacity:1;fill-rule:nonzero;stroke:none"
       d="m 123.01205,487.11573 477.14191,0 0,-207.55434 -477.14191,0 0,207.55434 z" />
    <path
       id="path8435"
       style="fill:none;stroke:#231f20;stroke-width:1.79706335;stroke-linecap:butt;stroke-linejoin:miter;stroke-miterlimit:4;stroke-dasharray:none;stroke-opacity:1"
       d="m 600.15826,487.11573 -477.14191,0 0,-207.55434 477.14191,0 0,207.55434 z" />
    <path
       id="path8437"
       style="fill:#badae6;fill-opacity:1;fill-rule:nonzero;stroke:none"
       d="m 123.01205,256.11009 106.49526,0 0,-64.4843 -106.49526,0 0,64.4843 z" />
    <path
       id="path8439"
       style="fill:none;stroke:#231f20;stroke-width:1.79706335;stroke-linecap:butt;stroke-linejoin:miter;stroke-miterlimit:4;stroke-dasharray:none;stroke-opacity:1"
       d="m 229.50731,256.11009 -106.49526,0 0,-64.4843 106.49526,0 0,64.4843 z" />
    <path
       id="path8441"
       style="fill:#97cee4;fill-opacity:1;fill-rule:nonzero;stroke:none"
       d="m 471.88427,256.11009 128.27399,0 0,-64.4843 -128.27399,0 0,64.4843 z" />
    <path
       id="path8443"
       style="fill:none;stroke:#231f20;stroke-width:1.79706335;stroke-linecap:butt;stroke-linejoin:miter;stroke-miterlimit:4;stroke-dasharray:none;stroke-opacity:1"
       d="m 600.15826,256.11009 -128.27399,0 0,-64.4843 128.27399,0 0,64.4843 z" />
    <path
       id="path8445"
       style="fill:#e6bad3;fill-opacity:1;fill-rule:nonzero;stroke:none"
       d="m 254.17009,256.11009 197.71059,0 0,-64.4843 -197.71059,0 0,64.4843 z" />
    <path
       id="path8447"
       style="fill:none;stroke:#231f20;stroke-width:1.79706335;stroke-linecap:butt;stroke-linejoin:miter;stroke-miterlimit:4;stroke-dasharray:none;stroke-opacity:1"
       d="m 451.88068,256.11009 -197.71059,0 0,-64.4843 197.71059,0 0,64.4843 z" />
    <g
       transform="matrix(4.2981498,0,0,-3.0054205,370.3706,418.08723)"
       id="g8477">
      <path
         id="path8479"
         style="fill:none;stroke:#272d72;stroke-width:0.82099998;stroke-linecap:butt;stroke-linejoin:miter;stroke-miterlimit:4;stroke-dasharray:none;stroke-opacity:1"
         d="M 0,0 C 0,0 2.606,2.642 2.588,3.706 2.573,4.721 0.022,6.442 0,7.457 -0.02,8.538 2.62,10.409 2.588,11.488 2.562,12.485 0.031,14.161 0,15.158 -0.034,16.251 2.627,18.15 2.588,19.243 2.557,20.229 0.016,21.883 0,22.87 -0.016,23.904 2.584,25.663 2.588,26.695 2.594,27.742 0.002,29.536 0,30.583 -0.002,31.637 2.602,33.449 2.588,34.505 2.577,35.526 0.026,37.262 0,38.284 -0.027,39.39 2.636,41.319 2.588,42.424 2.547,43.398 0,45.997 0,45.997" />
    </g>
    <g
       transform="matrix(4.2981498,0,0,-3.0054205,364.31877,414.04792)"
       id="g8481">
      <path
         id="path8483"
         style="fill:#272d72;fill-opacity:1;fill-rule:nonzero;stroke:none"
         d="M 0,0 5.403,0 2.933,-6.162" />
    </g>
    <g
       transform="matrix(4.2981498,0,0,-3.0054205,375.34353,297.3114)"
       id="g8485">
      <path
         id="path8487"
         style="fill:none;stroke:#272d72;stroke-width:0.82099998;stroke-linecap:butt;stroke-linejoin:miter;stroke-miterlimit:4;stroke-dasharray:none;stroke-opacity:1"
         d="m 0,0 c 0,0 1.449,1.297 1.431,2.361 -0.015,1.015 -2.566,2.737 -2.588,3.751 -0.02,1.081 2.62,2.952 2.588,4.032 -0.026,0.997 -2.557,2.673 -2.588,3.669 -0.034,1.093 2.627,2.992 2.588,4.085 -0.031,0.987 -2.572,2.64 -2.588,3.628 -0.016,1.032 2.584,2.792 2.588,3.824" />
    </g>
    <path
       id="path8489"
       style="fill:#272d72;fill-opacity:1;fill-rule:nonzero;stroke:none"
       d="m 330.27743,239.71853 84.3254,0 0,-21.60597 -84.3254,0 0,21.60597 z" />
    <text
       y="278.02045"
       x="278.30875"
       id="text8535"
       style="font-variant:normal;font-weight:normal;font-size:21.52396774px;font-family:HelveticaNeue;-inkscape-font-specification:HelveticaNeue-Roman;writing-mode:lr-tb;fill:#ffffff;fill-opacity:1;fill-rule:nonzero;stroke:none"
       transform="scale(1.1958915,0.83619623)">
      <tspan
         id="tspan8537"
         y="278.02045"
         x="278.30875 293.6554 305.21381 320.12997">CaCO</tspan>
    </text>
    <text
       y="285.02518"
       x="336.48468"
       id="text8539"
       style="font-variant:normal;font-weight:normal;font-size:14.51973343px;font-family:HelveticaNeue;-inkscape-font-specification:HelveticaNeue-Roman;writing-mode:lr-tb;fill:#ffffff;fill-opacity:1;fill-rule:nonzero;stroke:none"
       transform="scale(1.1958963,0.83619289)">
      <tspan
         id="tspan8541"
         y="285.02518"
         x="336.48468">3</tspan>
    </text>
    <g
       transform="matrix(4.2981498,0,0,-3.0054205,293.63567,324.27906)"
       id="g8543">
      <path
         id="path8545"
         style="fill:none;stroke:#267f39;stroke-width:0.82099998;stroke-linecap:butt;stroke-linejoin:miter;stroke-miterlimit:4;stroke-dasharray:none;stroke-opacity:1"
         d="m 0,0 c 0,0 -2.606,2.641 -2.588,3.706 0.016,1.015 2.566,2.736 2.588,3.75 0.02,1.082 -2.62,2.953 -2.588,4.032 0.025,0.997 2.558,2.673 2.588,3.67 0.034,1.092 -2.626,2.992 -2.588,4.085 0.032,0.986 2.573,2.64 2.588,3.626 0.015,1.034 -2.585,2.794 -2.588,3.826 -0.006,1.047 2.586,2.84 2.588,3.888" />
    </g>
    <g
       transform="matrix(4.2981498,0,0,-3.0054205,299.6875,320.23976)"
       id="g8547">
      <path
         id="path8549"
         style="fill:#267f39;fill-opacity:1;fill-rule:nonzero;stroke:none"
         d="m 0,0 -5.404,0 2.47,-6.161" />
    </g>
    <path
       id="path8551"
       style="fill:#267f39;fill-opacity:1;fill-rule:nonzero;stroke:none"
       d="m 264.5931,240.20541 61.31311,0 0,-21.60597 -61.31311,0 0,21.60597 z" />
    <g
       transform="matrix(4.2981498,0,0,-3.0054205,431.58052,341.2777)"
       id="g8635">
      <path
         id="path8637"
         style="fill:none;stroke:#255b8a;stroke-width:1.64300001;stroke-linecap:butt;stroke-linejoin:miter;stroke-miterlimit:4;stroke-dasharray:none;stroke-opacity:1"
         d="m 0,0 c 0,-5.443 -4.414,-9.856 -9.857,-9.856 l -47.641,0 c -5.444,0 -9.857,4.413 -9.857,9.856 l 0,34.499 c 0,5.443 4.413,9.856 9.857,9.856 l 47.641,0 C -4.414,44.355 0,39.942 0,34.499 L 0,0 Z" />
    </g>
    <g
       transform="matrix(4.2981498,0,0,-3.0054205,240.93179,207.97227)"
       id="g8639">
      <path
         id="path8641"
         style="fill:none;stroke:#ed1c24;stroke-width:1.64300001;stroke-linecap:butt;stroke-linejoin:miter;stroke-miterlimit:4;stroke-dasharray:none;stroke-opacity:1"
         d="m 0,0 34.499,0 c 5.443,0 9.857,-4.413 9.857,-9.856 l 0,-4.107" />
    </g>
    <g
       transform="matrix(4.2981498,0,0,-3.0054205,483.6569,346.2156)"
       id="g8643">
      <path
         id="path8645"
         style="fill:none;stroke:#255b8a;stroke-width:1.64300001;stroke-linecap:butt;stroke-linejoin:miter;stroke-miterlimit:4;stroke-dasharray:none;stroke-opacity:1"
         d="m 0,0 0,36.141 c 0,5.444 4.413,9.857 9.856,9.857 l 2.464,0 c 5.443,0 9.858,-4.413 9.858,-9.857 l 0,-50.926" />
    </g>
    <g
       transform="matrix(4.2981498,0,0,-3.0054205,578.98124,378.30746)"
       id="g8647">
      <path
         id="path8649"
         style="fill:none;stroke:#255b8a;stroke-width:1.64300001;stroke-linecap:butt;stroke-linejoin:miter;stroke-miterlimit:4;stroke-dasharray:none;stroke-opacity:1"
         d="m 0,0 0,-18.892 c 0,-5.443 -4.415,-9.856 -9.858,-9.856 l -80.497,0 c -5.443,0 -9.856,4.413 -9.856,9.856 l 0,6.571 c 0,5.444 4.413,9.857 9.856,9.857 l 54.213,0" />
    </g>
    <g
       transform="matrix(4.2981498,0,0,-3.0054205,483.6569,299.31003)"
       id="g8651">
      <path
         id="path8653"
         style="fill:none;stroke:#255b8a;stroke-width:1.64300001;stroke-linecap:butt;stroke-linejoin:miter;stroke-miterlimit:4;stroke-dasharray:none;stroke-opacity:1"
         d="m 0,0 0,-18.892 c 0,-5.443 -4.414,-9.857 -9.858,-9.857 l -54.212,0" />
    </g>
    <g
       transform="matrix(4.2981498,0,0,-3.0054205,591.83707,261.25537)"
       id="g8673">
      <path
         id="path8675"
         style="fill:#255b8a;fill-opacity:1;fill-rule:nonzero;stroke:none"
         d="M 0,0 -5.983,0 -2.991,-5.019 0,0" />
    </g>
    <g
       transform="matrix(4.2981498,0,0,-3.0054205,591.83707,261.25537)"
       id="g8677">
      <path
         id="path8679"
         style="fill:none;stroke:#231f20;stroke-width:0.41100001;stroke-linecap:butt;stroke-linejoin:miter;stroke-miterlimit:4;stroke-dasharray:none;stroke-opacity:1"
         d="M 0,0 -5.983,0 -2.991,-5.019 0,0 Z" />
    </g>
    <g
       transform="matrix(4.2981498,0,0,-3.0054205,154.93441,261.25537)"
       id="g8681">
      <path
         id="path8683"
         style="fill:#255b8a;fill-opacity:1;fill-rule:nonzero;stroke:none"
         d="M 0,0 -5.981,0 -2.991,-5.019 0,0" />
    </g>
    <g
       transform="matrix(4.2981498,0,0,-3.0054205,154.93441,261.25537)"
       id="g8685">
      <path
         id="path8687"
         style="fill:none;stroke:#231f20;stroke-width:0.41100001;stroke-linecap:butt;stroke-linejoin:miter;stroke-miterlimit:4;stroke-dasharray:none;stroke-opacity:1"
         d="M 0,0 -5.981,0 -2.991,-5.019 0,0 Z" />
    </g>
    <g
       transform="matrix(4.2981498,0,0,-3.0054205,496.51267,273.87511)"
       id="g8689">
      <path
         id="path8691"
         style="fill:#255b8a;fill-opacity:1;fill-rule:nonzero;stroke:none"
         d="M 0,0 -5.982,0 -2.991,5.019 0,0" />
    </g>
    <g
       transform="matrix(4.2981498,0,0,-3.0054205,496.51267,273.87511)"
       id="g8693">
      <path
         id="path8695"
         style="fill:none;stroke:#231f20;stroke-width:0.41100001;stroke-linecap:butt;stroke-linejoin:miter;stroke-miterlimit:4;stroke-dasharray:none;stroke-opacity:1"
         d="M 0,0 -5.982,0 -2.991,5.019 0,0 Z" />
    </g>
    <g
       transform="matrix(4.2981498,0,0,-3.0054205,444.43629,273.87511)"
       id="g8721">
      <path
         id="path8723"
         style="fill:#255b8a;fill-opacity:1;fill-rule:nonzero;stroke:none"
         d="M 0,0 -5.982,0 -2.991,5.019 0,0" />
    </g>
    <g
       transform="matrix(4.2981498,0,0,-3.0054205,444.43629,273.87511)"
       id="g8725">
      <path
         id="path8727"
         style="fill:none;stroke:#231f20;stroke-width:0.41100001;stroke-linecap:butt;stroke-linejoin:miter;stroke-miterlimit:4;stroke-dasharray:none;stroke-opacity:1"
         d="M 0,0 -5.982,0 -2.991,5.019 0,0 Z" />
    </g>
    <g
       transform="matrix(4.2981498,0,0,-3.0054205,249.31748,216.96149)"
       id="g8729">
      <path
         id="path8731"
         style="fill:#ed1c24;fill-opacity:1;fill-rule:nonzero;stroke:none"
         d="M 0,0 0,5.981 -5.02,2.992 0,0" />
    </g>
    <g
       transform="matrix(4.2981498,0,0,-3.0054205,249.31748,216.96149)"
       id="g8733">
      <path
         id="path8735"
         style="fill:none;stroke:#231f20;stroke-width:0.41100001;stroke-linecap:butt;stroke-linejoin:miter;stroke-miterlimit:4;stroke-dasharray:none;stroke-opacity:1"
         d="M 0,0 0,5.981 -5.02,2.992 0,0 Z" />
    </g>
    <g
       transform="matrix(4.2981498,0,0,-3.0054205,187.89262,324.27906)"
       id="g8737">
      <path
         id="path8739"
         style="fill:none;stroke:#267f39;stroke-width:0.82099998;stroke-linecap:butt;stroke-linejoin:miter;stroke-miterlimit:4;stroke-dasharray:none;stroke-opacity:1"
         d="m 0,0 c 0,0 -2.605,2.641 -2.588,3.706 0.016,1.015 2.567,2.736 2.588,3.75 0.021,1.082 -2.62,2.953 -2.588,4.032 0.026,0.997 2.558,2.673 2.588,3.67 0.033,1.092 -2.627,2.992 -2.588,4.085 0.033,0.986 2.574,2.64 2.588,3.626 0.016,1.034 -2.585,2.794 -2.588,3.826 -0.006,1.047 2.586,2.84 2.588,3.888" />
    </g>
    <g
       transform="matrix(4.2981498,0,0,-3.0054205,193.94012,320.23976)"
       id="g8741">
      <path
         id="path8743"
         style="fill:#267f39;fill-opacity:1;fill-rule:nonzero;stroke:none"
         d="m 0,0 -5.403,0 2.47,-6.161" />
    </g>
    <path
       id="path8745"
       style="fill:#267f39;fill-opacity:1;fill-rule:nonzero;stroke:none"
       d="m 158.84572,240.20541 61.31741,0 0,-21.60597 -61.31741,0 0,21.60597 z" />
    <g
       transform="matrix(4.2981498,0,0,-3.0054205,529.70298,324.27906)"
       id="g8747">
      <path
         id="path8749"
         style="fill:none;stroke:#267f39;stroke-width:0.82099998;stroke-linecap:butt;stroke-linejoin:miter;stroke-miterlimit:4;stroke-dasharray:none;stroke-opacity:1"
         d="m 0,0 c 0,0 -2.606,2.641 -2.588,3.706 0.015,1.015 2.566,2.736 2.588,3.75 0.02,1.082 -2.62,2.953 -2.588,4.032 0.026,0.997 2.557,2.673 2.588,3.67 0.034,1.092 -2.626,2.992 -2.588,4.085 0.032,0.986 2.573,2.64 2.588,3.626 0.016,1.034 -2.584,2.794 -2.588,3.826 -0.006,1.047 2.587,2.84 2.588,3.888" />
    </g>
    <g
       transform="matrix(4.2981498,0,0,-3.0054205,535.75478,320.23976)"
       id="g8751">
      <path
         id="path8753"
         style="fill:#267f39;fill-opacity:1;fill-rule:nonzero;stroke:none"
         d="m 0,0 -5.404,0 2.47,-6.161" />
    </g>
    <path
       id="path8755"
       style="fill:#267f39;fill-opacity:1;fill-rule:nonzero;stroke:none"
       d="m 500.66039,240.20541 61.3088,0 0,-21.60597 -61.3088,0 0,21.60597 z" />
    <text
       y="279.4646"
       x="139.48753"
       id="text8777"
       style="font-variant:normal;font-weight:normal;font-size:21.52396774px;font-family:HelveticaNeue;-inkscape-font-specification:HelveticaNeue-Roman;writing-mode:lr-tb;fill:#ffffff;fill-opacity:1;fill-rule:nonzero;stroke:none"
       transform="scale(1.1958915,0.83619623)">
      <tspan
         id="tspan8779"
         y="279.4646"
         x="139.48753">C</tspan>
    </text>
    <text
       y="283.05975"
       x="155.02779"
       id="text8781"
       style="font-variant:normal;font-weight:normal;font-size:15.20297623px;font-family:HelveticaNeue;-inkscape-font-specification:HelveticaNeue-Roman;writing-mode:lr-tb;fill:#ffffff;fill-opacity:1;fill-rule:nonzero;stroke:none"
       transform="scale(1.1958957,0.83619336)">
      <tspan
         id="tspan8783"
         y="283.05975"
         x="155.02779 163.75424 168.71048">org</tspan>
    </text>
    <text
       y="279.0574"
       x="227.9127"
       id="text8785"
       style="font-variant:normal;font-weight:normal;font-size:21.52396774px;font-family:HelveticaNeue;-inkscape-font-specification:HelveticaNeue-Roman;writing-mode:lr-tb;fill:#ffffff;fill-opacity:1;fill-rule:nonzero;stroke:none"
       transform="scale(1.1958915,0.83619623)">
      <tspan
         id="tspan8787"
         y="279.0574"
         x="227.9127">C</tspan>
    </text>
    <text
       y="282.65256"
       x="243.44901"
       id="text8789"
       style="font-variant:normal;font-weight:normal;font-size:15.20297623px;font-family:HelveticaNeue;-inkscape-font-specification:HelveticaNeue-Roman;writing-mode:lr-tb;fill:#ffffff;fill-opacity:1;fill-rule:nonzero;stroke:none"
       transform="scale(1.1958957,0.83619336)">
      <tspan
         id="tspan8791"
         y="282.65256"
         x="243.44901 252.17564 257.13177">org</tspan>
    </text>
    <text
       y="279.0574"
       x="425.3103"
       id="text8793"
       style="font-variant:normal;font-weight:normal;font-size:21.52396774px;font-family:HelveticaNeue;-inkscape-font-specification:HelveticaNeue-Roman;writing-mode:lr-tb;fill:#ffffff;fill-opacity:1;fill-rule:nonzero;stroke:none"
       transform="scale(1.1958915,0.83619623)">
      <tspan
         id="tspan8795"
         y="279.0574"
         x="425.3103">C</tspan>
    </text>
    <text
       y="282.65256"
       x="440.8494"
       id="text8797"
       style="font-variant:normal;font-weight:normal;font-size:15.20297623px;font-family:HelveticaNeue;-inkscape-font-specification:HelveticaNeue-Roman;writing-mode:lr-tb;fill:#ffffff;fill-opacity:1;fill-rule:nonzero;stroke:none"
       transform="scale(1.1958957,0.83619336)">
      <tspan
         id="tspan8799"
         y="282.65256"
         x="440.8494 449.57602 454.53217">org</tspan>
    </text>
    <text
       transform="scale(1.1958815,0.83620324)"
       id="text10071"
       y="163.28337"
       x="86.876724"
       style="font-style:normal;font-variant:normal;font-weight:normal;font-stretch:normal;font-size:28.75301361px;line-height:150%;font-family:AdvP3DC61D;-inkscape-font-specification:'AdvP3DC61D, Normal';text-align:start;letter-spacing:0px;word-spacing:0px;writing-mode:lr-tb;text-anchor:start;fill:#000000;fill-opacity:1;stroke:none;stroke-width:1px;stroke-linecap:butt;stroke-linejoin:miter;stroke-opacity:1"
       xml:space="preserve"><tspan
         y="163.28337"
         x="86.876724"
         id="tspan10073">Atlántico </tspan><tspan
         id="tspan10075"
         y="178.28337"
         x="86.876724">Norte</tspan></text>
    <text
       id="text10077"
       y="120.37322"
       x="534.56427"
       style="font-style:normal;font-variant:normal;font-weight:normal;font-stretch:normal;font-size:10px;line-height:150%;font-family:AdvP3DC61D;-inkscape-font-specification:'AdvP3DC61D, Normal';text-align:start;letter-spacing:0px;word-spacing:0px;writing-mode:lr-tb;text-anchor:start;fill:#000000;fill-opacity:1;stroke:none;stroke-width:1px;stroke-linecap:butt;stroke-linejoin:miter;stroke-opacity:1"
       xml:space="preserve"><tspan
         id="tspan10081"
         y="120.37322"
         x="534.56427" /></text>
    <flowRoot
       style="fill:black;stroke:none;stroke-opacity:1;stroke-width:1px;stroke-linejoin:miter;stroke-linecap:butt;fill-opacity:1;font-family:AdvP3DC61D;font-style:normal;font-weight:normal;font-size:10px;line-height:150%;letter-spacing:0px;word-spacing:0px;-inkscape-font-specification:'AdvP3DC61D, Normal';font-stretch:normal;font-variant:normal;text-anchor:start;text-align:start;writing-mode:lr"
       id="flowRoot10083"
       xml:space="preserve"><flowRegion
         id="flowRegion10085"><rect
           y="121.30614"
           x="540.1618"
           height="12.127985"
           width="31.719345"
           id="rect10087" /></flowRegion><flowPara
         id="flowPara10089"></flowPara></flowRoot>    <text
       transform="scale(1.1958815,0.83620324)"
       id="text10093"
       y="165.19434"
       x="232.86758"
       style="font-style:normal;font-variant:normal;font-weight:normal;font-stretch:normal;font-size:28.75301361px;line-height:150%;font-family:AdvP3DC61D;-inkscape-font-specification:'AdvP3DC61D, Normal';text-align:start;letter-spacing:0px;word-spacing:0px;writing-mode:lr-tb;text-anchor:start;fill:#000000;fill-opacity:1;stroke:none;stroke-width:1px;stroke-linecap:butt;stroke-linejoin:miter;stroke-opacity:1"
       xml:space="preserve"><tspan
         y="165.19434"
         x="232.86758"
         id="tspan10095">Latitudes </tspan><tspan
         id="tspan10097"
         y="180.19434"
         x="232.86758">Medias</tspan></text>
    <text
       transform="scale(1.1958815,0.83620324)"
       id="text10099"
       y="164.80859"
       x="399.19598"
       style="font-style:normal;font-variant:normal;font-weight:normal;font-stretch:normal;font-size:28.75301361px;line-height:150%;font-family:AdvP3DC61D;-inkscape-font-specification:'AdvP3DC61D, Normal';text-align:start;letter-spacing:0px;word-spacing:0px;writing-mode:lr-tb;text-anchor:start;fill:#000000;fill-opacity:1;stroke:none;stroke-width:1px;stroke-linecap:butt;stroke-linejoin:miter;stroke-opacity:1"
       xml:space="preserve"><tspan
         y="164.80859"
         x="399.19598"
         id="tspan10101">Océanos </tspan><tspan
         id="tspan10103"
         y="179.80859"
         x="399.19598">del Sur</tspan></text>
  </g>
</svg>
