<?xml version="1.0" encoding="UTF-8" standalone="no"?>
<svg
   xmlns:dc="http://purl.org/dc/elements/1.1/"
   xmlns:cc="http://creativecommons.org/ns#"
   xmlns:rdf="http://www.w3.org/1999/02/22-rdf-syntax-ns#"
   xmlns:svg="http://www.w3.org/2000/svg"
   xmlns="http://www.w3.org/2000/svg"
   width="210mm"
   height="297mm"
   viewBox="0 0 744.09448819 1052.3622047"
   id="svg10037"
   version="1.1">
  <defs
     id="defs10039" />
  <metadata
     id="metadata10042">
    <rdf:RDF>
      <cc:Work
         rdf:about="">
        <dc:format>image/svg+xml</dc:format>
        <dc:type
           rdf:resource="http://purl.org/dc/dcmitype/StillImage" />
        <dc:title></dc:title>
      </cc:Work>
    </rdf:RDF>
  </metadata>
  <g
     transform="matrix(2.2405891,0,0,2.6490765,-394.52898,-360.08031)"
     id="layer1">
    <path
       id="path8437"
       style="fill:none;stroke:#231f20;stroke-width:0.625;stroke-linecap:butt;stroke-linejoin:miter;stroke-miterlimit:2;stroke-dasharray:none;stroke-opacity:1"
       d="m 238.81831,272.09154 1.69375,0 m -1.69375,-5.76 1.69375,0 m -1.69375,-5.7425 1.69375,0 m -1.69375,-5.77625 1.69375,0 m -1.69375,-5.74375 1.69375,0 m -1.69375,-5.76 1.69375,0 m -1.69375,-5.75875 1.69375,0 m -1.69375,-5.76 1.69375,0 m -1.69375,-5.76001 1.69375,0 m -1.69375,-5.75875 1.69375,0 m -1.69375,-5.76 1.69375,0 m -3.325,57.58001 3.38875,0 m -3.38875,-28.7825 3.38875,0 m -3.38875,-28.79751 3.38875,0 m 220.52875,107.97251 1.69375,0 m -1.69375,-4.31625 1.69375,0 m -1.69375,-4.315 1.69375,0 m -1.69375,-4.31625 1.69375,0 m -1.69375,-4.33125 1.69375,0 m -1.69375,-4.315 1.69375,0 m -1.69375,-4.31625 1.69375,0 m -1.69375,-4.31625 1.69375,0 m -1.69375,-4.33125 1.69375,0 m -1.69375,-4.31625 1.69375,0 m -1.69375,-4.315 1.69375,0 m -1.77375,43.18875 3.40625,0 m -3.40625,-21.59375 3.40625,0 m -3.40625,-21.595 3.40625,0 m -223.98125,109.62 0,-1.69375 m 4.9125,1.69375 0,-1.69375 m 4.89625,1.69375 0,-1.69375 m 4.9125,1.69375 0,-1.69375 m 4.89625,1.69375 0,-1.69375 m 4.9125,1.69375 0,-1.69375 m 4.895,1.69375 0,-1.69375 m 4.91375,1.69375 0,-1.69375 m 4.895,1.69375 0,-1.69375 m 4.91375,1.69375 0,-1.69375 m 4.89625,1.69375 0,-1.69375 m 4.91125,1.69375 0,-1.69375 m 4.8975,1.69375 0,-1.69375 m 4.91125,1.69375 0,-1.69375 m 4.8975,1.69375 0,-1.69375 m 4.91125,1.69375 0,-1.69375 m 4.8975,1.69375 0,-1.69375 m 4.91125,1.69375 0,-1.69375 m 4.8975,1.69375 0,-1.69375 m 4.91125,1.69375 0,-1.69375 m 4.91125,1.69375 0,-1.69375 m 4.89625,1.69375 0,-1.69375 m 4.9125,1.69375 0,-1.69375 m 4.8975,1.69375 0,-1.69375 m 4.91125,1.69375 0,-1.69375 m 4.8975,1.69375 0,-1.69375 m 4.91,1.69375 0,-1.69375 m 4.8975,1.69375 0,-1.69375 m 4.91125,1.69375 0,-1.69375 m 4.8975,1.69375 0,-1.69375 m 4.91125,1.69375 0,-1.69375 m 4.8975,1.69375 0,-1.69375 m 4.91125,1.69375 0,-1.69375 m 4.8975,1.69375 0,-1.69375 m 4.91125,1.69375 0,-1.69375 m 4.8975,1.69375 0,-1.69375 m 4.91,1.69375 0,-1.69375 m 4.8975,1.69375 0,-1.69375 m 4.9125,1.69375 0,-1.69375 m 4.8975,1.69375 0,-1.69375 m 4.91,1.69375 0,-1.69375 m 4.9125,1.69375 0,-1.69375 m 4.89625,1.69375 0,-1.69375 m 4.9125,1.69375 0,-1.69375 m 4.8975,1.69375 0,-1.69375 m 4.91125,1.69375 0,-1.69375" />
    <path
       id="path8439"
       style="fill:none;stroke:#231f20;stroke-width:0.625;stroke-linecap:butt;stroke-linejoin:miter;stroke-miterlimit:2;stroke-dasharray:none;stroke-opacity:1"
       d="m 240.44956,390.54904 0,-3.40625 m 24.53,3.40625 0,-3.40625 m 24.51375,3.40625 0,-3.40625 m 24.52875,3.40625 0,-3.40625 m 24.52875,3.40625 0,-3.40625 m 24.515,3.40625 0,-3.40625 m 24.5275,3.40625 0,-3.40625 m 24.515,3.40625 0,-3.40625 m 24.5275,3.40625 0,-3.40625 m 24.53,3.40625 0,-3.40625 m -220.71625,-172.56876 0,-1.695 m 4.9125,1.695 0,-1.695 m 4.89625,1.695 0,-1.695 m 4.9125,1.695 0,-1.695 m 4.89625,1.695 0,-1.695 m 4.9125,1.695 0,-1.695 m 4.895,1.695 0,-1.695 m 4.91375,1.695 0,-1.695 m 4.895,1.695 0,-1.695 m 4.91375,1.695 0,-1.695 m 4.89625,1.695 0,-1.695 m 4.91125,1.695 0,-1.695 m 4.8975,1.695 0,-1.695 m 4.91125,1.695 0,-1.695 m 4.8975,1.695 0,-1.695 m 4.91125,1.695 0,-1.695 m 4.8975,1.695 0,-1.695 m 4.91125,1.695 0,-1.695 m 4.8975,1.695 0,-1.695 m 4.91125,1.695 0,-1.695 m 4.91125,1.695 0,-1.695 m 4.89625,1.695 0,-1.695 m 4.9125,1.695 0,-1.695 m 4.8975,1.695 0,-1.695 m 4.91125,1.695 0,-1.695 m 4.8975,1.695 0,-1.695 m 4.91,1.695 0,-1.695 m 4.8975,1.695 0,-1.695 m 4.91125,1.695 0,-1.695 m 4.8975,1.695 0,-1.695 m 4.91125,1.695 0,-1.695 m 4.8975,1.695 0,-1.695 m 4.91125,1.695 0,-1.695 m 4.8975,1.695 0,-1.695 m 4.91125,1.695 0,-1.695 m 4.8975,1.695 0,-1.695 m 4.91,1.695 0,-1.695 m 4.8975,1.695 0,-1.695 m 4.9125,1.695 0,-1.695 m 4.8975,1.695 0,-1.695 m 4.91,1.695 0,-1.695 m 4.9125,1.695 0,-1.695 m 4.89625,1.695 0,-1.695 m 4.9125,1.695 0,-1.695 m 4.8975,1.695 0,-1.695 m 4.91125,1.695 0,-1.695 m -220.71625,1.7575 0,-3.40625 m 24.53,3.40625 0,-3.40625 m 24.51375,3.40625 0,-3.40625 m 24.52875,3.40625 0,-3.40625 m 24.52875,3.40625 0,-3.40625 m 24.515,3.40625 0,-3.40625 m 24.5275,3.40625 0,-3.40625 m 24.515,3.40625 0,-3.40625 m 24.5275,3.40625 0,-3.40625 m 24.53,3.40625 0,-3.40625" />
    <path
       id="path8441"
       style="fill:none;stroke:#231f20;stroke-width:0.625;stroke-linecap:butt;stroke-linejoin:miter;stroke-miterlimit:2;stroke-dasharray:none;stroke-opacity:1"
       d="m 240.44956,387.53529 0,-173.29001 m 220.71625,173.29001 0,-173.29001 m -220.98125,173.03876 221.23125,0 m -221.23125,-172.77251 221.23125,0" />
    <path
       id="path8443"
       style="fill:none;stroke:#353596;stroke-width:0.625;stroke-linecap:butt;stroke-linejoin:miter;stroke-miterlimit:2;stroke-dasharray:none;stroke-opacity:1"
       d="m 241.59581,223.31653 0.6425,6.8575 0.0962,2.69876 1.16,3.40625 0.55,4.3775 0.39125,-2.88625 0.97375,-1.14625 0.44,-1.20875 0.15625,10.87625 0.18875,3.75 0.83125,1.20875 0.2825,6.2775 1.82,24.8275 1.13,-4.0325 1.46,-1.38125 1.63125,1.7725 0.3775,-1.83625 2.15125,-7.89375 1.19125,-2.1175 2.935,0 2.40125,11.3925 1.11375,0.51875 0.58125,-12.4925 0.58125,-3.2325 0.8625,14.57875 2.8875,-18.095 0.36125,6.57625 2.8875,8.63125 0.98875,2.30625 0.58125,-2.07125 2.93375,-18.65875 1.225,-1.03625 1.78875,6.9675 0.5175,-2.715 1.36625,-5.28875 1.01875,-5.82125 0.3925,2.715 0.2975,4.76875 0.40875,8.005 0.44,-1.60125 0.64375,5.18 1.12875,-9.38625 0.3925,-2.36875 1.41375,-2.135 2.1975,3.57875 0.485,-2.87125 0.48625,-3.46875 0.77,5.02125 0.89375,-5.02125 0.4875,3.5775 1.035,-4.31625 0.33,-4.33 0.6275,-3.2175 0.58125,-3.17125 0.54875,-5.47625 0.43875,2.82375 0.29875,-7.59501 0.32875,0.75375 0.7075,6.21501 0.65875,-2.935 0.42375,-3.57751 0.42375,1.03375 0.36125,3.92376 0.32875,-7.20251 0.64375,3.17125 0.31375,-2.48 0.5975,4.48751 0.015,1.20875 0.22,0.1725 0.125,-7.76876 0.15625,1.4925 0.425,1.96125 0.14,3.86001 0.22,2.6525 0.1575,-0.0625 0.31375,-7.37751 0.42375,0.75375 0.0462,-7.48625 0.12625,0.17375 0.1725,2.37 0.18875,10.70251 0.1725,0.40875 0.20375,2.52625 0.8,10.71875 0.75375,9.4475 0.42375,8.69375 0.3925,2.48 0.32875,3.735 0.14125,-2.13375 0.18875,-0.3925 0.1575,3.7975 0.345,0.8625 0.1575,0.58125 0.26625,1.83625 0.59625,-1.20875 0.91,-2.41625 0.51875,3.515 1.50625,-3.79875 2.385,2.935 2.05625,1.66375 0.3925,2.025 2.5575,-10.89125 1.225,7.37625 1.11375,4.4875 2.25875,-8.12875 1.335,0.0625 1.39625,4.31625 0.40875,0.125 1.11375,-10.1375 1.09875,-3.17 0.40875,-2.59 0.84625,10.31125 0.8475,-2.135 1.03625,-4.14375 1.05125,-11.92625 0.8475,-0.0638 0.77,7.785 1.47375,-1.20875 1.66375,-12.9625 1.57,-4.83375 0.47125,6.8575 0.5325,-4.95875 0.42375,1.89875 0.2825,7.03125 0.20375,2.00875 0.91125,-5.4625 0.70625,-2.305 0.2975,-1.3825 0.3925,-1.5525 0.0788,-2.715 0.6275,-3.10875 0.92625,3.57875 0.43875,5.635 0.2675,0.6425 0.42375,-4.15875 0.26625,-2.4175 0.12625,0.29875 0.20375,3.32625 0.33,2.825 0.6425,16.30625 0.25125,-2.30625 0.2825,5.1775 0.14125,-0.9725 0.2825,1.83625 0.65875,1.335 0.23625,-7.09375 0.58125,-12.21 0.32875,1.38 0.11,0.8175 0.1875,4.94375 0.39375,-4.5525 0.32875,-0.8625 0.23625,-4.48875 1.39625,-2.00875 0.32875,-4.03375 0.29875,6.21625 0.2825,-3.45375 0.26625,2.48 0.2675,2.24375 0.235,-3.75 0.17375,-0.11125 0.155,-0.8625 0.205,-3.17 0.50125,-3.97125 0.785,-11.06251 0.535,8.75626 0.155,6.56 0.14125,1.44375 0.52,17.57625 0.7225,2.7 0.7825,8.35 0.26625,-7.895 0.33,10.65625 0.3,-0.75375 0.95625,-1.3175 0.31375,-1.66375 0.44,-1.2075 0.72125,0.0462 0.5325,-3.34375 0.70875,0.47125 0.4375,-3.3425 0.675,-7.76875 0.39125,16.29125 0.22125,-6.79625 0.3775,13.24625 0.59625,-3.17 0.36,-2.7 0.36,8.17625 0.3925,-3.28 0.425,-2.02375 0.3925,-0.1725 0.3925,-2.4175 0.40625,2.99625 0.3925,-5.1775 0.81625,-5.07 0.45625,-2.54125 0.6125,-4.77125 0.97125,-4.44125 1.145,2.8875 0.7075,-2.3075 0.3775,-0.345 1.3325,6.105 0.33,1.83625 0.45375,5.4775 1.3675,-2.8875 0.58125,-0.2825 1.3325,-6.45125 0.80125,-6.795 1.3325,-2.3075 0.58125,-0.28125 0.34625,-5.4775 0.59625,3.06125 0.45375,10.9375 0.61375,-1.14625 0.62625,-3.06 0.45625,-2.69875 0.47,-0.64375 0.425,-1.66375 0.375,-5.65 0.425,-2.935 0.45375,-0.235 0.44,5.9325 0.2975,-14.84626 0.315,12.08376 0.36125,4.03375 0.89375,-6.45 0.47125,3.86 0.94125,-4.095 0.44,-2.35375 0.42375,0.0612 0.83125,-3.4675 0.81625,0.0625 0.39125,-2.30626 0.36375,-0.97375 0.375,-1.89875 0.7525,5.87001 0.3775,-3.90751 0.315,-0.51875 0.48625,-0.29875 0.36125,-5.2875 0.23375,-3.92375 0.10875,0.455 0.33125,-5.9325 0.34375,11.8175 0.39375,-4.37875 0.25125,4.08 0.36125,4.72375 0.425,8.52251 0.48375,7.95625 0.56625,1.27125 0.47125,3.155 1.02,-9.2125 0.65875,28.515 0.81625,-2.58875 0.8175,0.1725 1.5675,-8.93 1.39625,-0.47125 0.8475,2.88875 1.4125,4.0325 1.53875,9.3225 0.815,3.92375 2.16625,-8.64875 1.39875,-2.99625 1.50625,2.605 1.69375,-7.37625 1.64875,-8.63125 1.6925,1.55375 0.75375,-7.48625 1.79,-3.98625 0.69,0.58 2.58875,-10.8275 0.8325,3.1075 1.9625,2.36875 0.91,2.8725 1.0675,-9.275 1.02,-4.83376 1.805,-1.89875 2.6825,-0.9725 1.5525,-2.3075 0.87875,4.2525 1.60375,-5.28875" />
    <path
       id="path8445"
       style="fill:none;stroke:#00a650;stroke-width:0.625;stroke-linecap:butt;stroke-linejoin:miter;stroke-miterlimit:2;stroke-dasharray:none;stroke-opacity:1"
       d="m 240.44956,295.71029 0.0625,0 0.0162,2.11875 0,-2.165 0.0163,-0.91125 0.015,3.42125 0,2.32375 0.0163,-1.93125 0.0163,-0.91 0,-1.38125 0.0312,1.38125 0.015,-2.5575 0,-2.84125 0.015,2.5425 0.0163,0.43875 0.015,0.69125 0,2.59 0.0163,0.815 0.0163,0.56625 0.015,-1.8675 0.0163,-0.76875 0.0163,-1.5075 0.015,0.42375 0.015,2.73125 0.0163,0.815 0.0163,-1.82 0.015,-1.94625 0.0163,0.17375 0,1.6 0.015,0 0.015,-1.6 0.0163,0.21875 0.0163,0.0937 0.0312,1.38125 0.0162,-1.9925 0,-0.81625 0.0312,2.85625 0.015,-0.4875 0.0162,-0.9875 0.015,0.9875 0.0162,2.16625 0.0163,0.42375 0.015,-3.2325 0.0163,-1.89875 0.015,0.98875 0.0325,0.22 0.015,-0.2675 0.015,1.13 0.0163,1.38125 0.0163,-0.0788 0.015,0.94125 0.0312,0.47125 0.015,-1.63125 0.0175,0.47 0.015,0.3925 0.0312,0.0788 0.0163,-0.7225 0.015,-1.13 0.0163,-1.7725 0.015,1.12875 0.0312,0.42375 0.0163,-0.1725 0.015,0.3925 0.0325,0.22 0.015,0.8625 0.0162,-0.56375 0.0163,-2.19875 0.015,-2.73 0.0312,5.57125 0.0163,1.20875 0.0312,-1.85125 0.015,-0.2675 0.015,-2.4175 0.0487,4.3325 0.015,-3.1225 0.015,-0.3775 0.0325,3.06 0.015,2.025 0.0312,-3.53125 0.0163,-3.1075 0.015,2.495 0.0325,2.51125 0.015,0.1725 0.0312,-1.7725 0.015,-1.25625 0.0163,0.7375 0.0312,-1.16125 0.0163,-0.61125 0.015,1.52125 0.0312,0.47125 0.0175,-0.81625 0.0312,-0.43875 0.015,-0.91125 0.0163,0.12625 0.03,2.80875 0.015,-0.0462 0.0325,-3.10875 0.015,-0.89375 0.0162,0.1725 0.0325,1.4125 0.015,1.72625 0.0163,-0.42375 0.0312,-1.20875 0.015,0.5975 0.0312,1.12875 0.015,0.17375 0.0325,0.0462 0.015,0.42375 0.0325,0.48625 0.015,-0.26625 0.0325,-1.20875 0.015,-2.80875 0.0312,-1.5075 0.0775,0 0.0175,0.64375 0.0312,1.77375 0.03,2.81 0.0325,-0.785 0.0163,-2.15125 0.03,0.64375 0.0162,2.9825 0.0312,-1.25625 0.0163,-0.78375 0.0312,0.78375 0.015,-2.07125 0.0312,-0.12625 0.015,1.46 0.0325,-0.42375 0.015,-1.3025 0.0312,0.47125 0.0175,0.0462 0.03,-1.0825 0.0163,0 0.015,0.785 0.0312,0.47125 0.0163,-0.17375 0.0312,0.12625 0.0637,0.7375 0.0312,-0.0788 0.015,-0.95625 0.0312,-0.77 0.015,1.5075 0.0325,1.55375 0.0312,-2.715 0.0312,1.24 0.0163,0.5175 0.0312,-1.115 0.015,-0.5175 0.0312,2.11875 0.0163,2.6675 0.0312,-1.33375 0.0312,-2.07125 0.0163,0.78375 0.0312,0.0325 0.015,-2.66875 0.0312,-0.0475 0.0163,1.8525 0.0312,1.2075 0.0163,1.13125 0.0312,-0.3925 0.015,-1.50625 0.0325,0 0.015,1.16125 0.0312,0.345 0.0312,-1.50625 0.0162,-1.7275 0.0312,0.12625 0.0163,0.12625 0.0312,0.43875 0.0163,1.33375 0.03,-0.64375 0.0163,-1.6 0.0312,0.0775 0.015,-1.3325 0.0312,1.255 0.0163,-0.12625 0.0163,0.12625 0.0312,1.72625 0.0163,-0.43875 0.0312,0.83125 0.03,0.0312 0.0163,-0.64375 0.0312,-0.42375 0.015,0.205 0.0312,-2.44875 0.0163,-4.63 0.0475,7.565 0.0312,-0.2675 0.0162,-0.64375 0.0312,-0.91 0.015,0.095 0.0312,0.6425 0.0162,0.29875 0.0312,0.0462 0.0163,0.0788 0.0312,-0.47125 0.015,-2.36875 0.0325,0.5175 0.015,2.4175 0.0312,-0.785 0.015,0 0.0325,0.86375 0.0312,-1.06875 0.0163,-0.21875 0.0312,0.47125 0.015,-0.2525 0.0325,-1.035 0.015,-1.05125 0.0162,0.565 0.0625,2.165 0.0163,-0.345 0.03,-1.4275 0.0162,-0.0475 0.0312,-1.55375 0.0163,-0.25125 0.015,2.495 0.0312,0.86375 0.0325,0.0937 0.015,-0.29875 0.0312,-1.035 0.0163,0 0.03,0.69125 0.0163,-1.005 0.0312,0.48625 0.0163,0.25125 0.0312,-2.37 0.0163,-0.565 0.0312,1.77375 0.015,2.8875 0.0312,-0.91 0.015,-1.4125 0.0325,0.81625 0.0475,0 0.0312,0.25125 0.0163,0.14 0.03,-0.7375 0.0162,-1.16 0.0312,0.42375 0.015,0.43875 0.0325,-1.255 0.0163,-0.12625 0.0312,0.25125 0.015,-0.69 0.0312,-0.22 0.0163,-1.72625 0.03,-0.22 0.0163,2.5575 0.0312,0.77 0.0163,-0.565 0.0325,1.22375 0.015,1.24 0.0312,0.1725 0.03,0.7375 0.0163,0.0475 0.0312,0.0463 0.0163,0.55 0.0325,0.9575 0.0312,0.43875 0.0312,1.24 0.015,-0.76875 0.0312,-0.9575 0.0312,1.695 0.0312,0.6425 0.0162,-0.8625 0.0325,0.345 0.03,2.5425 0.0312,0.785 0.0312,-0.6125 0.0312,-0.89375 0.0312,0.37625 0.0312,1.25625 0.0325,0 0.0775,-2.6375 0.0312,0.44 0.0325,0.25 0.0312,0.44 0.0312,0.47125 0.0312,-0.25125 0.0312,-0.0937 0.0312,-0.69125 0.0162,-0.7375 0.0312,0 0.0312,1.3025 0.0312,1.60125 0.0312,-0.69 0.0312,-1.1775 0.0325,-0.77 0.0312,-0.95625 0.015,-1.8525 0.0312,-0.3925 0.0312,0.51875 0.0312,-0.47 0.22,5.35 0.0312,-1.2075 0.0325,0.47 0.0312,1.38 0.0312,-0.94125 0.0312,-0.14 0.0312,0.565 0.0312,1.00375 0.0312,0.42375 0.0312,-0.59625 0.0312,0.54875 0.0312,1.7275 0.0325,0.21875 0.03,-1.035 0.0312,-0.47125 0.0325,-0.1725 0.0312,1.0825 0.0312,1.45875 0.0475,-0.29625 0.0312,-0.3925 0.0312,0.345 0.0312,-0.7375 0.0325,0.1725 0.03,2.2125 0.0463,-0.5175 0.0325,-0.6125 0.0325,0.8625 0.0775,1.7275 0.0312,0.39125 0.0312,0 0.0462,-0.345 0.0325,0.0937 0.0787,1.03625 0.0312,0.86375 0.0463,2.19625 0.0325,0.47125 0.0462,-1.20875 0.0475,-1.11375 0.0312,-0.1725 0.0312,-0.22 0.0475,1.67875 0.0462,0.48625 0.0312,-1.52125 0.0475,0.26625 0.0312,0.1725 0.0475,-0.0463 0.0312,-0.25125 0.0462,0.0788 0.08,2.29125 0.0462,-1.20875 0.0312,-0.69125 0.0475,-0.39125 0.0312,0.61125 0.0475,1.38125 0.0475,-0.1725 0.03,0.76875 0.0475,-0.69 0.0475,-2.29125 0.0325,0.125 0.0463,1.25625 0.0312,0.39125 0.095,-1.16125 0.0312,-0.69 0.0462,0.4225 0.0312,1.1775 0.0475,0.77 0.0312,0.69 0.0475,-0.47125 0.0462,0.22 0.0462,-1.60125 0.0325,-0.95625 0.0475,0.56375 0.0312,-0.815 0.0462,0.76875 0.0312,0.785 0.0462,-0.0937 0.0487,-0.12625 0.0312,0.0462 0.0788,-0.43875 0.0462,0.1725 0.0312,0.48625 0.0475,-0.0462 0.0475,-0.44 0.0312,-0.0312 0.0475,0 0.0787,0.47125 0.0463,-0.9575 0.0312,-0.94125 0.0475,0.7675 0.0312,1.52375 0.0475,0.25125 0.0462,-0.56625 0.0325,0.095 0.0475,0.69125 0.0462,1.0825 0.0312,0 0.0462,-0.9575 0.0475,-0.3925 0.1725,0.785 0.0312,-1.60125 0.0475,-0.12625 0.0475,1.5075 0.0312,0.785 0.0462,0.25125 0.0475,0.31375 0.0475,-1.22375 0.0312,-2.02625 0.0937,2.29125 0.0788,0 0.0937,-0.95625 0.0312,-0.59625 0.0487,-0.3925 0.03,2.11875 0.0475,1.85125 0.095,-4.83375 0.0312,-0.0462 0.0462,0 0.0312,-0.64375 0.0462,-0.64375 0.08,2.9825 0.125,-1.1775 0.0312,0.565 0.0475,0.98875 0.0462,-0.345 0.0475,-1.115 0.0312,-1.69375 0.0312,-0.1575 0.0475,0.7225 0.0475,0.0937 0.0312,0.47 0.0475,0.0475 0.03,-0.83125 0.0475,0.22 0.0312,0.815 0.0462,0.70625 0.0325,0.59625 0.0475,0.12625 0.0463,0 0.0312,-0.895 0.0475,-0.48625 0.0475,0.91 0.0325,1.94625 0.045,0.98875 0.0475,0 0.095,-1.035 0.0312,-1.25625 0.0462,-0.77 0.0475,1.1625 0.0475,0.98875 0.0312,-0.345 0.0463,-0.64375 0.0475,-0.47125 0.0312,-0.47125 0.095,-1.0825 0.0312,1.77375 0.0462,1.72625 0.25125,-5.4925 0.0475,0 0.1875,3.49875 0.0475,0.785 0.0475,0.0325 0.0462,-0.0788 0.0325,0.64375 0.0462,-0.3925 0.0475,-0.34625 0.0462,-0.895 0.0325,-2.1175 0.0463,-0.29875 0.0312,1.55375 0.0475,0.55 0.0475,-0.205 0.15625,-1.17625 0.0475,0.8625 0.0312,0.83125 0.0937,0.25125 0.0475,-0.5175 0.0325,-0.5175 0.0462,0.2975 0.0475,0.69125 0.03,0.44 0.0475,-0.69125 0.0475,-1.38125 0.0312,-0.69 0.0462,-0.9575 0.0325,-0.0788 0.0462,0.12625 0.0325,0.76875 0.0462,0.48625 0.0312,-1.72625 0.0475,1.20875 0.0312,1.06625 0.0475,-1.28625" />
    <path
       id="path8447"
       style="fill:none;stroke:#00a650;stroke-width:0.625;stroke-linecap:butt;stroke-linejoin:miter;stroke-miterlimit:2;stroke-dasharray:none;stroke-opacity:1"
       d="m 256.41081,311.56154 0.0475,-0.9575 0.03,0.22 0.0475,1.9925 0.0312,0 0.0488,-0.47 0.0462,0.7675 0.0312,0.0475 0.0475,0 0.0775,-1.38 0.0475,0.94 0.0312,0.2675 0.0475,-0.61125 0.0462,-0.47125 0.0325,0.12625 0.0463,0.47 0.0312,-0.47 0.0475,-1.68 0.0325,0.91 0.0462,-0.31375 0.0312,-1.33375 0.0462,0.91 0.0325,-1.33375 0.0475,-0.1725 0.0312,0.345 0.03,-0.7375 0.0475,-0.44 0.0312,-1.45875 0.0312,-0.8325 0.0475,0.6125 0.0625,2.41625 0.0462,-0.21875 0.0325,-0.205 0.0312,-1.13 0.0475,-0.39125 0.0312,0.345 0.0312,0.47 0.0462,0.2675 0.0325,-0.6425 0.0312,0.56375 0.0312,0.25125 0.0475,0.125 0.03,1.1775 0.0487,0.47125 0.0312,0.76875 0.0463,0.87875 0.0312,0.47125 0.0475,1.255 0.0475,-1.035 0.0312,-1.64875 0.0475,0.77 0.03,-0.81625 0.0475,-1.6325 0.0325,0.76875 0.0462,0.785 0.0775,0.7375 0.0325,0 0.0462,0.1575 0.0487,0.61125 0.03,-1.035 0.0475,-2.16625 0.0312,1.0825 0.0475,1.3025 0.0312,-0.7375 0.0475,-0.39125 0.03,-0.39375 0.0475,0.34625 0.0325,0.61125 0.0462,0.34625 0.0312,0.42375 0.0475,0.345 0.0475,0.22 0.0312,0 0.0463,-0.59625 0.0475,-0.56625 0.1575,-0.43875 0.03,-0.895 0.0475,-0.7375 0.0312,0 0.0312,0.59625 0.0487,0.22 0.03,0 0.0475,-0.29875 0.03,0 0.0487,-0.565 0.0312,-1.11375 0.0475,1.9775 0.03,1.8525 0.0475,-0.12625 0.0312,0.785 0.0475,-0.345 0.0475,-1.99375 0.0312,0.5175 0.0475,1.03625 0.0312,-0.5175 0.0475,-0.3925 0.03,0.31375 0.0475,-0.565 0.0312,-1.8525 0.0475,0 0.0312,1.6325 0.0475,0.565 0.0312,-1.82 0.0463,-1.805 0.0637,-0.43875 0.0462,0.1725 0.0312,1.035 0.0312,-1.77375 0.0475,-0.69 0.0312,1.42875 0.0312,-0.69125 0.0325,-0.345 0.0462,1.5525 0.0325,1.08375 0.03,-1.82 0.0475,-0.8625 0.0312,1.695 0.0312,1.035 0.0475,-0.785 0.0312,0.2675 0.0312,-0.17375 0.0463,0.69125 0.0312,1.16125 0.0475,-0.47125 0.0325,-0.1725 0.0475,0.125 0.03,-0.345 0.0312,-0.69 0.0475,-0.095 0.0325,1.42875 0.0475,1.0825 0.03,-2.6675 0.0462,0.12625 0.0325,3.15375 0.0475,-0.22 0.0312,-0.2975 0.0475,1.20875 0.0462,-0.1725 0.0312,-0.3925 0.0475,0.69 0.0462,0.7375 0.0312,-0.8625 0.0475,0.0775 0.0475,1.4275 0.0312,-0.9875 0.0475,-2.55875 0.03,1.03625 0.0475,2.33875 0.0487,-1.03625 0.03,-0.9575 0.0475,0.14125 0.0462,-0.0937 0.0325,1.85125 0.0475,1.99375 0.0462,-0.64375 0.0462,-0.69125 0.0475,0.77 0.0788,-3.625 0.0475,1.00375 0.0312,0.20375 0.0475,0.0475 0.0475,0.94125 0.0462,0 0.0312,0.22 0.0475,0.14125 0.0462,-0.9575 0.0475,-0.94125 0.0312,0.29875 0.0462,0.0462 0.0475,-1.13 0.0325,0.59625 0.0463,0.565 0.0312,-0.6425 0.0462,-0.99 0.0475,-0.95625 0.0325,0.6425 0.0475,1.47625 0.03,-0.47125 0.0475,0.59625 0.0462,0.565 0.0325,-1.6475 0.0475,-0.205 0.0312,1.20875 0.0462,0.29875 0.0475,-1.03625 0.0312,0.51875 0.0475,-0.44 0.0312,-1.20875 0.0475,0.0937 0.03,-0.6425 0.0487,0.0775 0.0462,1.13 0.0312,0.25125 0.0475,0.29875 0.0312,-0.20375 0.0475,-0.3925 0.0312,-1.25625 0.0462,0.0475 0.0312,0.29875 0.0475,-0.98875 0.0325,0 0.045,0.98875 0.0325,0.21875 0.0462,0.25125 0.0325,-0.76875 0.0475,-1.255 0.0312,0.7375 0.0462,0.0463 0.0312,-1.08125 0.0312,-0.3925 0.0475,1.0825 0.0312,0.6425 0.0475,-0.8625 0.0312,0.44 0.0475,0 0.0312,0.2975 0.0462,-0.22 0.0312,-0.9875 0.0312,1.38 0.0475,0.91 0.0487,-0.48625 0.03,-0.37625 0.0312,-2.16625 0.0475,-2.98125 0.0312,1.475 0.0325,2.715 0.0462,0.565 0.0312,1.6 0.0462,0.98875 0.0462,-0.43875 0.0325,-2.495 0.0475,0.2975 0.0312,1.13 0.0462,-1.2075 0.0312,0 0.0475,0.6425 0.0325,0.0788 0.0462,-0.76875 0.0312,-1.35 0.0463,1.475 0.0325,1.38125 0.0475,0.26625 0.0312,1.24 0.0475,-1.45875 0.0475,-0.12625 0.03,2.15 0.0475,0.66 0.0475,-0.31375 0.0788,-3.705 0.0312,-0.26625 0.0462,1.3025 0.0475,1.55375 0.0312,0 0.0475,-0.26625 0.0475,-1.335 0.03,0.47125 0.0475,0.69 0.0312,-0.91 0.095,2.38625 0.0312,-0.2675 0.0463,-1.46 0.0475,0.34625 0.0475,0.69 0.03,-1.6475 0.0487,0.47125 0.0462,-0.1725 0.0325,0.1725 0.0462,0.91 0.0312,-1.03625 0.0462,-0.3925 0.0475,-1.50625 0.0325,-0.6425 0.0475,0.815 0.03,-0.59625 0.0462,-0.565 0.0325,0.565 0.0312,0.29875 0.0475,0.69 0.0475,-1.5225 0.0312,-1.11375 0.03,0.7375 0.0487,-0.345 0.03,-0.65875 0.0475,0.56375 0.0312,0.47125 0.0312,-0.895 0.0475,0.86375 0.0312,0 0.0462,-1.94625 0.0325,0.1725 0.0312,1.20875 0.0475,-1.0825 0.0312,-1.99375 0.0312,-0.0788 0.0312,1.3025 0.0475,0.9425 0.0312,0.47125 0.0312,-1.85375 0.0475,0.095 0.03,2.07125 0.0312,0 0.0475,0.0325 0.0325,2.385 0.0462,-0.69 0.0312,-2.245 0.0475,0.86375 0.0312,-0.86375 0.0312,-0.0937 0.0475,0.7375 0.0312,0.1725 0.0312,-1.82 0.0475,-0.12625 0.0312,1.8525 0.0475,0.7375 0.0312,1.1775 0.0462,0.5175 0.0312,0.5175 0.0475,-0.345 0.0475,-0.22 0.0312,0.5175 0.0462,0.9425 0.0325,-0.25125 0.0475,-1.16125 0.0462,-0.0475 0.0312,0.47125 0.0463,-0.42375 0.0312,-0.88 0.08,0 0.0462,0.7375 0.0475,1.77375 0.03,0.095 0.0488,-1.005 0.0475,-0.0788 0.03,0.22 0.0475,0.64375 0.0462,-0.3925 0.0325,-0.0475 0.0475,0.66 0.0462,0.125 0.0325,0.0788 0.0462,1.82 0.0475,0.42375 0.0462,-1.28625 0.0475,-0.44 0.0475,-0.72125 0.0312,0.91 0.0475,-0.0475 0.0463,0.34625 0.0475,0.69 0.0325,-1.03625 0.0462,-0.9575 0.0462,0.2675 0.0463,1.03625 0.0475,0.25 0.0325,-0.125 0.0475,1.03625 0.0462,0.73625 0.0462,-0.21875 0.0488,1.16125 0.0462,-0.1725 0.0475,-0.895 0.0462,-0.345 0.0475,-0.0937 0.14125,0 0.0475,-1.03625 0.0312,-1.7725 0.0475,-0.425 0.0462,1.5075 0.0475,-0.47125 0.0312,-0.65875 0.0475,1.0825 0.0462,0 0.0462,-0.0788 0.0312,0.3775 0.0487,0.87875 0.0475,1.11375 0.0462,-0.3925 0.0463,-0.37625 0.0475,1.33375 0.0475,-1.255 0.0475,0.1725 0.0462,1.255 0.0475,-0.12625 0.0475,0.645 0.0462,-0.47125 0.0475,-0.095 0.0475,-0.47125 0.0463,-1.3325 0.0475,0.6425 0.0463,0.565 0.0487,1.1625 0.0462,1.80375 0.0475,-2.84125 0.0462,-0.90875 0.0462,2.1175 0.0488,0.2525 0.0475,-0.64375 0.0463,-1.9 0.0462,-1.16 0.0475,0.5175 0.0475,1.725 0.0475,0.08 0.0462,-0.55 0.0475,0.51875 0.0475,-0.73875 0.0312,-0.565 0.0462,0.64375 0.0475,0.43875 0.0475,-0.26625 0.0475,0.7375 0.0463,-0.21875 0.0475,0.39125 0.0475,0.785 0.0462,-0.26625 0.0475,-0.3925 0.0462,-0.86375 0.0475,0.65875 0.0475,1.24125 0.0462,-1.585 0.0475,-0.51875 0.0475,1.46 0.0475,-0.1725 0.0463,0.69 0.0625,-1.55375 0.0325,-3.20125 0.0462,-1.4125 0.0475,0.81625 0.0312,-1.30375 0.0475,0.34625 0.0462,2.46375 0.0312,0.6125 0.0475,1.63125 0.0462,-0.54875 0.0488,-0.91 0.0462,-1.0825 0.0312,0.5175 0.0462,1.475 0.0487,1.38 0.0463,-0.31375 0.0475,-1.725 0.0463,0.0937 0.0475,0.47125 0.0475,-1.89875 0.0312,-2.1975 0.1725,0 0.0312,0.125 0.0475,0.12625 0.0312,0.47 0.0475,0.1725 0.0463,-1.4125 0.0312,-0.7375 0.0475,-1.4275 0.0312,1.82 0.0475,-0.26625 0.0312,-0.98875 0.0475,1.42875 0.0312,2.02375 0.0462,-1.50625 0.0325,-0.44 0.0462,0.81625 0.0312,0.31375 0.0475,0.0312 0.0462,1.20875 0.0312,0.65875 0.0475,0.94125 0.0475,-1.28625 0.0475,0.64375 0.0312,-1.72625 0.0462,-1.77375 0.0475,1.255 0.0312,0.5975 0.0475,0.83125 0.0312,0.345 0.0475,1.72625 0.0462,1.8525 0.0937,-4.4425 0.0325,1.335 0.0463,1.33375 0.0475,-0.69125 0.0475,-1.035 0.0325,0.29875 0.0462,1.6 0.0462,-2.24375 0.0462,-1.03625 0.0312,-0.7375 0.0488,-2.29125 0.0312,3.375 0.0462,2.3375 0.0462,-2.73125 0.0325,-0.0312 0.0475,-0.43875 0.0312,-0.1725" />
    <path
       id="path8449"
       style="fill:none;stroke:#00a650;stroke-width:0.625;stroke-linecap:butt;stroke-linejoin:miter;stroke-miterlimit:2;stroke-dasharray:none;stroke-opacity:1"
       d="m 277.22081,309.09779 0.0463,-0.51875 0.0312,0.81625 0.0475,-0.76875 0.0475,-0.785 0.0312,0.5175 0.0312,0.2675 0.0462,-0.7375 0.0325,-1.20875 0.0475,-0.345 0.0312,-0.345 0.0312,-0.095 0.0462,2.77875 0.0312,-1.08375 0.0487,-0.44 0.0312,1.03625 0.0462,-2.24375 0.0312,-0.81625 0.0312,1.94625 0.0475,0.72125 0.0312,0.22 0.0475,0.1725 0.0312,-0.7675 0.0312,-0.66 0.0462,1.0825 0.0312,1.0825 0.0488,-0.0775 0.0312,-0.14125 0.0462,1.255 0.0312,1.13 0.0475,0.98875 0.0475,1.13 0.0463,-1.4275 0.0312,-2.04125 0.0475,-0.125 0.0312,0.125 0.0475,1.69625 0.0462,0.1725 0.0325,0.25 0.0475,1.72625 0.0462,-3.185 0.0312,-5.83875 0.0462,4.9275 0.0312,2.81 0.0487,-1.72625 0.0463,0.5175 0.0312,-0.69 0.0462,-0.7375 0.0325,0.25125 0.0475,0.95625 0.0462,-0.8625 0.0312,-2.90375 0.0312,0 0.0475,0.53375 0.0312,-0.61125 0.0475,-1.13125 0.0312,2.85625 0.0312,0.1725 0.0475,-0.69 0.0312,-0.78375 0.0475,0.90875 0.0312,0.34625 0.0312,-1.20875 0.0463,-3.35875 0.0325,3.155 0.0475,3.92375 0.03,-0.69125 0.0475,0.7375 0.0312,-2.5575 0.0475,-2.495 0.0312,-0.51875 0.0312,0.3775 0.0462,0.91 0.0312,0 0.0325,-0.64375 0.0475,0.42375 0.0625,1.3975 0.0463,-3.03 0.0325,-1.945 0.0625,3.02875 0.0475,-1.47625 0.03,-1.45875 0.0312,1.2075 0.0325,0 0.0312,0.0325 0.0462,-0.17375 0.0325,-0.0312 0.0312,0.25125 0.0312,-0.91 0.0312,0.21875 0.0312,-1.4275 0.0312,-1.255 0.0312,2.9025 0.0475,3.1075 0.0312,-0.69 0.0325,-0.7375 0.0775,1.13 0.0312,-1.25625 0.0312,-1.3025 0.0475,-1.75625 0.0312,-1.775 0.0325,1.42875 0.03,-1.05125 0.0312,2.29 0.0312,1.1775 0.0325,0.0325 0.0312,0 0.0312,-0.64375 0.0475,-0.22 0.03,-0.89375 0.0312,2.88625 0.0325,-1.7725 0.0312,-1.255 0.0312,-0.0788 0.0312,0.86375 0.0475,2.02375 0.0312,0.81625 0.0312,-0.98875 0.0312,-0.9425 0.0788,0 0.0312,0.205 0.0325,-0.64375 0.03,-3.23375 0.0312,-2.3375 0.0325,2.63625 0.03,0.94125 0.0325,1.03625 0.03,0.14125 0.0325,-0.5175 0.0312,-1.005 0.0475,-0.72125 0.0312,-0.44 0.0312,1.13 0.0312,0.51875 0.0312,0.25 0.0312,-1.4275 0.0325,-0.125 0.03,-0.47125 0.0312,-0.34625 0.0325,0.9425 0.0312,0.7375 0.0312,1.38125 0.0312,-0.29875 0.0312,0.25125 0.0312,-0.0312 0.0312,-0.345 0.0637,0 0.0462,0.64375 0.0312,0.34375 0.0312,-0.2975 0.0638,0.69 0.0312,1.115 0.0462,1.39625 0.0312,-2.29125 0.0312,0.9425 0.0312,-0.565 0.0325,-0.0325 0.0475,0.12625 0.03,0.59625 0.0325,0.22 0.0312,-0.25125 0.0312,-1.38125 0.0475,-1.035 0.0625,3.5775 0.03,-1.255 0.0325,-1.42875 0.0462,1.94625 0.0325,-0.69 0.0312,-0.3925 0.0312,0.21875 0.0312,0.6125 0.0475,0 0.03,0.9425 0.0325,0.90875 0.15625,0 0.0325,-0.0775 0.0312,-0.095 0.0475,0.12625 0.0312,-0.345 0.0312,-0.1725 0.03,-1.97875 0.0475,0.0325 0.0325,0.0462 0.03,1.42875 0.0325,0.69125 0.0462,1.13 0.0325,1.11375 0.0312,-1.38125 0.0475,-1.38125 0.0312,1.0825 0.0312,0.86375 0.0775,0 0.0475,-0.91 0.0312,-0.9425 0.0312,2.4175 0.0475,2.79375 0.0312,-1.89875 0.0462,-1.555 0.0325,0.66 0.0312,0.37625 0.0462,0.14125 0.0325,-1.5225 0.0463,-0.1725 0.0312,-2.46375 0.0312,2.2125 0.0312,-0.5175 0.0487,0.59625 0.03,-0.0312 0.0312,0.51875 0.0475,0.0775 0.0312,1.33375 0.0312,0.2675 0.0475,-2.80875 0.0312,-3.10875 0.0312,0.22 0.0312,1.16125 0.0312,0.22 0.0325,-0.69125 0.0462,1.97875 0.0312,0.64375 0.0312,-0.69125 0.0325,0.66 0.0463,0.69 0.0325,-1.005 0.03,-0.42375 0.0312,-1.4275 0.0475,0.345 0.0312,2.11875 0.0325,-0.42375 0.0312,1.7575 0.0462,-2.24375 0.0312,-3.28 0.0325,2.51 0.0312,0.47125 0.0312,-1.035 0.0462,0.21875 0.0312,1.25625 0.0312,1.38 0.0312,-1.1775 0.0487,-0.54875 0.0312,0.54875 0.0312,-0.6425 0.0312,1.25625 0.0475,1.80375 0.03,-2.4175 0.0312,-1.08125 0.0325,-2.10375 0.0312,-0.4875 0.0312,0.4875 0.0462,-0.51875 0.0325,1.63375 0.03,2.85625 0.0325,0 0.0312,-0.34625 0.0787,-3.075 0.0312,-0.3775 0.0312,1.67875 0.0312,0.51875 0.0312,0.26625 0.0475,-1.05 0.0312,-0.47125 0.0325,-0.17375 0.0312,0.44 0.03,1.115 0.0312,0.98875 0.0475,0.34375 0.0312,-3.27875 0.0325,-0.645 0.0312,1.3025 0.0312,0.3 0.0613,0 0.0475,-0.3925 0.0312,-0.3925 0.0637,0 0.0312,0.785 0.0312,0.76875 0.03,-0.895 0.0325,-1.1775 0.0475,0 0.0312,0.785 0.0312,0.1725 0.0312,0.9425 0.0312,0.31375 0.0312,-0.1725 0.0475,0.1725 0.0312,-1.21 0.0637,1.63375 0.0775,0 0.0312,-0.25125 0.0312,2.15 0.0312,-0.91125 0.0475,-1.41125 0.0312,0.565 0.0325,2.3225 0.0462,-1.25625 0.0325,-0.25 0.0613,-3.97125 0.0325,1.93125 0.0312,0.345 0.0463,1.52125 0.0312,1.46 0.0312,-1.33375 0.0475,-1.3025 0.0312,0.345 0.0312,0.87875 0.0312,-2.385 0.0325,-1.115 0.0775,0 0.0312,1.58625 0.0312,1.64625 0.0325,-0.95625 0.03,0.44 0.0488,-1.47625 0.0312,-0.5175 0.03,0.95625 0.0325,1.08375 0.0625,-1.20875 0.0475,-0.14 0.0312,-0.12625 0.0312,-0.0475 0.03,-0.1725 0.0325,-0.0788 0.0312,0.425 0.0475,-0.51875 0.0325,-1.03625 0.0612,0 0.0312,-0.12625 0.0325,0.51875 0.0312,0.47125 0.03,0.65875 0.0487,-1.3025 0.03,-1.255 0.0312,0 0.0637,1.475 0.0312,0 0.03,-0.1725 0.0325,-0.22 0.0312,-0.29875 0.0312,0.565 0.0325,-0.31375 0.0462,-0.29875 0.0312,-0.2975 0.0312,-0.31375 0.0312,0 0.0312,-0.50125 0.0325,-0.565 0.0312,-0.2675 0.03,-0.25125 0.0325,0.98875 0.0312,-0.3925 0.0312,-1.4275 0.0325,0.26625 0.03,0.2975 0.0625,-0.69 0.0162,-0.345 0.0312,-0.34625 0.0625,2.2925 0.0625,-1.16125 0.0325,-0.44 0.0312,-0.3925 0.0625,1.89875 0.0625,1.225 0.0637,-2.605 0.0625,3.15375 0.0312,-1.20875 0.0312,-1.25375 0.0625,3.0275 0.0325,-0.29875 0.0462,-0.2975 0.0625,2.495 0.0312,-0.1725 0.0462,-0.125 0.0325,0 0.0325,0.22 0.0312,-0.14125 0.03,-0.3775 0.0475,-0.1725 0.0312,-0.22 0.0312,-0.12625 0.0325,-0.17125 0.0312,0.42375 0.0462,0.47 0.0312,-0.0788 0.0312,-0.125 0.0788,0 0.0638,-0.43875 0.0312,0 0.0462,0.91 0.0325,0.86375 0.03,-0.51875 0.0312,-0.47125 0.0475,-0.5175 0.0312,-0.48625 0.0325,0.26625 0.0312,0.22 0.0462,0.55 0.0312,0.5325 0.0325,-1.00375 0.0312,-1.03625 0.0775,0 0.0312,-0.25125 0.0312,-0.31375 0.0638,-2.58875 0.0625,3.42 0.0475,0.5975 0.0312,0.61125 0.0625,-1.13 0.0462,0.7375 0.0325,0.73875 0.0312,0.59625 0.0463,0.61125 0.0637,-1.72625 0.0775,0 0.0638,2.495 0.0475,1.47625 0.0312,1.475 0.125,0 0.0475,0.5025 0.0463,0.48625 0.0312,0.125 0.0475,0.12625 0.0475,0 0.0312,-0.29875 0.0475,-0.2975 0.0462,0 0.0312,-0.1725 0.0475,-0.1725 0.0475,-0.34625 0.0312,-0.3925 0.1725,0 0.0312,0.69125 0.0475,0.7375 0.0462,0 0.0312,-0.9575 0.0475,-0.91 0.0788,0 0.0462,0.31375 0.0325,0.25125 0.0462,-1.0825 0.0312,-1.0675 0.0462,0.1725 0.0325,0.125 0.2825,0 0.0312,1.115 0.0462,1.0825 0.0325,-0.42375 0.0475,-0.44 0.03,-0.5175 0.0475,-0.5175 0.0788,0" />
    <path
       id="path8451"
       style="fill:none;stroke:#00a650;stroke-width:0.625;stroke-linecap:butt;stroke-linejoin:miter;stroke-miterlimit:2;stroke-dasharray:none;stroke-opacity:1"
       d="m 295.04831,309.44279 0.15625,0 0.0487,0.91 0.0312,0.91 0.0462,0 0.0312,-0.565 0.0475,-0.56375 0.20375,0 0.0312,-0.29875 0.0487,-0.29875 0.03,-0.0937 0.0475,0.5175 0.0312,0.5175 0.0937,-0.69 0.0325,-1.03625 0.0462,-1.0825 0.0312,0 0.0312,-0.29875 0.0475,-0.0462 0.0312,0.12625 0.0312,0.14 0.0475,0.86375 0.0312,0.91 0.0462,-1.35 0.0312,-1.38 0.0475,0 0.0637,-0.5975 0.0462,0.0788 0.0312,0.095 0.0325,-0.22 0.0462,-0.17375 0.0312,0.91125 0.0312,0.94125 0.0475,-0.4225 0.0312,-0.4875 0.0312,-0.69 0.0462,-0.69125 0.0325,-0.81625 0.0312,-0.76875 0.0312,1.16125 0.0475,1.115 0.0625,-4.7875 0.1575,0 0.03,0.2675 0.0325,0.20375 0.0475,1.20875 0.0312,1.2075 0.03,-0.595 0.0325,-0.64375 0.0312,-0.315 0.0312,-0.25 0.0312,0.0312 0.0475,-0.12625 0.0312,-0.1725 0.03,-0.125 0.0325,-0.0788 0.0638,0 0.0312,-0.345 0.0312,-0.315 0.0312,-0.76875 0.03,-0.7375 0.0325,-0.5175 0.0312,-0.47125 0.0312,0 0.0625,1.03625 0.0312,-0.6125 0.0325,-0.59625 0.0312,0.81625 0.0312,0.8625 0.0312,-1.30125 0.0163,-1.33375 0.0613,1.47375 0.0325,0.34625 0.0312,0.47125 0.0312,0.0775 0.0312,-0.25125 0.0312,-0.2975 0.0312,-0.91 0.0325,-0.95875 0.0625,0 0.0312,0.69125 0.015,0.69125 0.0325,0 0.0312,-0.86375 0.0312,-0.815 0.0312,-0.6125 0.0312,-0.64375 0.0625,3.7975 0.0312,-0.76875 0.0325,-0.785 0.015,0 0.0312,-0.81625 0.0312,-0.8625 0.0625,2.33875 0.0312,0 0.0325,-0.17375 0.0312,-0.14125 0.0312,-0.5175 0.03,0.0475 0.0163,0.61125 0.0312,-0.83125 0.0325,-0.81625 0.0625,2.07125 0.0312,0 0.03,-0.76875 0.0325,-0.78375 0.0638,1.12875 0.0312,-0.5175 0.015,-0.565 0.0625,0 0.0312,-0.61125 0.0312,-0.55 0.0325,-0.70625 0.0163,-0.69 0.03,0.3125 0.0325,0.29875 0.0312,0.3925 0.0312,0.64375 0.0137,0.25125 0.0325,0 0.0312,0.43875 0.0312,0.47125 0.0312,0 0.0325,-1.16125 0.015,-1.20875 0.0312,0.81625 0.0312,0.86375 0.0325,0 0.0312,-0.0325 0.0312,-0.0462 0.0312,0 0.0163,-0.7375 0.03,-0.7375 0.0325,0 0.0312,-0.76875 0.0312,-0.785 0.015,0 0.0638,2.51125 0.0312,-0.91125 0.015,-0.8625 0.0625,-0.44 0.0312,0.4875 0.0175,0.51625 0.0312,0 0.03,-0.345 0.0325,-0.31375 0.015,0.56625 0.0312,0.61125 0.0625,1.85125 0.0312,-1.16 0.0325,-0.51875 0.015,0.59625 0.0325,0.2675 0.0312,0.25125 0.03,-0.69125 0.0325,-0.7375 0.0162,-1.24 0.03,-1.255 0.0325,1.03625 0.0312,1.08125 0.015,-0.14 0.0312,-0.1725 0.0312,0.26625 0.0312,0.25125 0.0162,-0.72125 0.0312,-0.69125 0.0325,0 0.015,0.25125 0.0312,0.2975 0.0312,0.31375 0.0312,-1.725 0.015,-0.43875 0.0325,1.6775 0.0625,0 0.0163,0.2675 0.03,0.25125 0.0312,-0.25125 0.0163,-0.22 0.0325,-0.0788 0.0312,-0.0937 0.0312,0.0937 0.015,0.0312 0.0312,0 0.0312,-0.125 0.0312,0.98875 0.0162,1.0825 0.0312,-0.47 0.0325,-0.51875 0.03,-0.6125 0.0312,-0.54875 0.0163,-0.69 0.0312,-0.70625 0.0312,0.785 0.0163,0.815 0.0312,-0.54875 0.0312,-0.5175 0.0312,-0.14125 0.0163,-0.0788 0.0312,0.91 0.0312,0.8625 0.0162,-0.0462 0.0613,-0.44 0.0325,0.1725 0.015,0.22 0.0312,0.22 0.0325,0.25125 0.0312,0.31375 0.0312,-0.9575 0.015,-1.28625 0.0312,0.0788 0.0325,0.0937 0.015,0.0788 0.0312,0.0937 0.0625,-1.915 0.0163,-0.8625 0.0312,-1.5075 0.015,-0.64375 0.0325,1.7275 0.015,1.67875 0.0325,-0.86375 0.03,-0.91 0.0637,0 0.0312,-0.25125 0.0312,-0.26625 0.0163,-0.29875 0.0312,-0.2975 0.015,-0.0475 0.0312,-0.0787 0.0163,0.20375 0.0312,0.17375 0.015,-0.34625 0.0325,-0.34375 0.03,0.34375 0.0175,0.34625 0.03,-0.59625 0.0163,-0.44 0.0312,0.1725 0.0163,0.8325 0.0312,0.20375 0.0312,-0.55 0.0163,-0.65875 0.0312,-0.6425 0.0462,0 0.0163,0.43875 0.0312,-0.785 0.015,-1.20875 0.0312,0.12625 0.0163,0.14125 0.0312,0 0.0162,0.81625 0.0312,0.81625 0.0312,0.6125 0.0163,0.5475 0.0312,-0.815 0.015,-0.81625 0.0312,0.565 0.0312,0.55 0.0163,0.61125 0.0312,0.59625 0.0475,0 0.0312,-1.2075 0.0312,-1.16125 0.015,-0.77 0.0325,-0.7375 0.015,1.42875 0.0312,3.9225 0.0325,2.51125 0.0312,-2.33875 0.0163,-2.29125 0.0312,-0.98875 0.03,-1.035 0.0162,0.47125 0.0312,0.5175 0.015,0.2975 0.0312,0.69 0.0325,0.3925 0.0312,-0.90875 0.015,-0.9425 0.0325,0 0.0312,1.38125 0.015,1.38 0.0312,-0.56375 0.0312,0.0462 0.0312,0.5975 0.0487,0.14 0.0312,0.34625 0.03,0.39125 0.0312,0.2525 0.015,0.69 0.0325,0.47 0.0312,0.315 0.0325,0.25125 0.0613,0.0937 0.0325,0.54875 0.0312,-0.98875 0.0312,-1.50625 0.0625,3.35875 0.0625,2.07125 0.0312,-0.54875 0.0312,-0.565 0.0325,-0.0937 0.0312,-0.0788 0.0625,2.165 0.0475,-0.14125 0.0312,0.65875 0.0312,0.76875 0.0312,0 0.0463,-0.47 0.0312,-0.47125 0.0325,0.0312 0.0312,0.22 0.0325,0.12625 0.0775,0 0.0312,0.48625 0.0312,1.035 0.0475,0.51875 0.0312,0.64375 0.0462,0.61125 0.0637,-0.785 0.0463,0.51875 0.0312,0.5175 0.0475,-0.91 0.0325,-0.91 0.0312,0 0.0462,1.5225 0.0312,1.5525 0.0475,0.125 0.0312,0.0475 0.0475,1.08375 0.0475,1.035 0.03,0.29875 0.0475,0.91125 0.0462,0.47 0.0487,0.44 0.0475,-0.86375 0.03,-0.0462 0.0475,1.6775 0.0462,1.5075 0.0475,-0.1725 0.0475,-0.0325 0.0462,0.77 0.0638,0.22 0.0462,0.565 0.0475,-0.47125 0.0475,-1.22375 0.0462,0.21875 0.0475,0.565 0.0475,0.51875 0.0475,-0.0475 0.0462,-0.42375 0.0625,0.94125 0.0475,0.785 0.0462,-0.9575 0.0475,-0.125 0.0475,0.3925 0.0625,-0.64375 0.0475,0.54875 0.0462,1.13 0.0475,-0.83125 0.0475,-0.29875 0.0625,0.8325 0.0463,0.2975 0.0475,0.125 0.0475,-0.69 0.0625,-0.69 0.0475,0.0475 0.0462,0.21875 0.0475,0.8475 0.0625,1.64875 0.0475,0.98875 0.0625,0.91 0.0475,-0.77 0.0638,-0.90875 0.0462,0.345 0.0625,-0.12625 0.0462,0 0.0638,-0.21875 0.0475,-0.73875 0.0625,0 0.0475,0.6125 0.0625,-0.345 0.0475,0 0.0613,0.76875 0.0475,0.43875 0.0625,-0.5175 0.0488,-0.6125 0.0625,0.565 0.0462,0.91125 0.0625,-0.44 0.0475,-1.25625 0.0625,0.2675 0.0475,0.59625 0.0625,-0.1725 0.0475,-0.54875 0.0625,-0.69125 0.0475,1.24 0.0625,0.44 0.0462,-0.9575 0.0638,-0.17375 0.0475,0.61375 0.0625,0.42375 0.0475,-0.29875 0.0613,-0.1725 0.0475,-0.29875 0.0625,0.3925 0.0475,-0.86375 0.0625,-0.22 0.0475,0.64375 0.0638,-0.2975 0.0462,0.64375 0.0625,0.64375 0.0462,-0.12625 0.0638,-0.25125 0.0475,-0.43875 0.0625,-0.8175 0.0463,0.22 0.0637,0.3775 0.0462,0.0937 0.0625,0 0.0475,0.81625 0.0625,0.6125 0.0487,-1.35 0.0613,-1.03625 0.0475,0.6125 0.0625,-0.12625 0.0475,-1.0825 0.0463,0.22 0.0637,0.1725 0.0462,0.20375 0.0638,0.7375 0.0475,0.29875 0.0625,-0.34625 0.0462,-0.72125 0.0625,0.25125 0.0487,0.345 0.0613,0.47125 0.0475,0.83125 0.0625,-0.345 0.0475,-0.3925 0.0625,0.29875 0.0475,-0.345 0.0625,-0.8175 0.0475,0 0.0625,-0.34375 0.0475,-0.3925 0.0625,0.2975 0.0463,0.43875 0.0637,0.08 0.0475,-0.0312 0.0625,-0.315 0.0937,0.34625 0.0637,0 0.0463,0.34375 0.0612,-0.25 0.0487,-0.22 0.0625,0.7375 0.0625,0.1725 0.0475,0.3925 0.0625,-0.0475 0.0475,-2.04" />
    <path
       id="path8453"
       style="fill:none;stroke:#00a650;stroke-width:0.625;stroke-linecap:butt;stroke-linejoin:miter;stroke-miterlimit:2;stroke-dasharray:none;stroke-opacity:1"
       d="m 313.15956,312.84779 0.0625,-0.37625 0.0462,0.47125 0.0475,-0.1725 0.0625,0.5175 0.0475,0 0.0625,-0.29875 0.0475,-0.2675 0.0625,-0.21875 0.0475,0.345 0.0625,-0.37625 0.0475,-0.1725 0.0462,0.5175 0.0638,-0.0462 0.0475,-0.0788 0.0612,-0.095 0.0475,-0.59625 0.0475,-0.0462 0.0625,0.54875 0.0475,-0.5025 0.0625,-1.0825 0.0475,0.0788 0.0462,1.2075 0.0625,-0.0462 0.0475,-1.72625 0.0475,-0.345 0.0462,0.65875 0.0638,0.125 0.0475,0 0.0475,0.81625 0.0613,0.5175 0.0462,-0.0775 0.0637,0.0312 0.0463,1.13 0.0637,0.1725 0.0475,0 0.0625,-0.5175 0.0475,0.21875 0.0612,0.98875 0.0487,-0.1725 0.0613,-0.565 0.0475,-0.565 0.0637,-0.37625 0.0462,0.47125 0.0625,-0.095 0.0638,0.36125 0.0462,-0.26625 0.0475,-1.16125 0.0625,0.98875 0.0475,1.16 0.0625,0.095 0.0625,-0.9575 0.0475,-0.2975 0.0625,0.26625 0.0475,-0.22 0.0625,1.28625 0.0638,-0.72125 0.0462,-1.3025 0.0625,1.25625 0.0475,2.98125 0.0625,-0.5175 0.0625,-0.69125 0.0625,0.76875 0.0637,-2.02375 0.0475,0.0462 0.0612,0.34625 0.0638,0.47125 0.0475,-1.335 0.0625,1.24 0.0625,1.3025 0.0625,-1.55375 0.0475,0.565 0.0625,1.5075 0.0625,-1.42875 0.0625,-0.9425 0.0638,0.895 0.0462,-0.0788 0.0638,0.12625 0.0612,0.0937 0.0638,-0.22 0.0637,0.22 0.045,-1.94625 0.0638,-0.39125 0.0637,0.565 0.0462,-0.61375 0.0625,0.22125 0.0638,0.47 0.0462,-2.495 0.0625,-0.0937 0.0475,-0.77 0.0475,1.2875 0.0625,2.4175 0.0625,-1.115 0.0475,-1.4275 0.0625,-1.1625 0.0463,0.25125 0.0475,-2.14875 0.0638,-1.60125 0.0475,0.94125 0.0462,2.46375 0.0462,-3.15375 0.0475,2.385 0.0637,0.25125 0.0463,0.47125 0.0462,-1.555 0.0637,0.8325 0.0475,1.33375 0.0625,-0.22 0.0462,0.29875 0.0475,0.0475 0.0625,1.6 0.0487,-1.4275 0.0613,0.6125 0.0475,-0.73875 0.0625,1.805 0.0637,-0.345 0.0462,0.48625 0.0613,1.20875 0.0637,-1.475 0.0488,-0.0312 0.0625,-0.91 0.0462,0.56375 0.0625,-0.1875 0.0637,-1.5075 0.045,0 0.0487,-0.98875 0.0625,-1.9925 0.0475,0.345 0.0462,2.63625 0.0625,-0.47 0.0475,-0.7375 0.0475,0.98875 0.0625,1.91375 0.0637,-0.56375 0.0463,0.0312 0.0625,-0.12625 0.0462,-0.47125 0.0637,1.08375 0.0475,0.42375 0.0625,0.69 0.0625,0.2675 0.0638,-0.4875 0.0462,1.77375 0.0625,0.51875 0.0638,0.3125 0.0612,0.51875 0.0638,-1.72625 0.0625,0.47125 0.0625,0.39125 0.0625,-0.39125 0.0637,0.0462 0.0625,-1.3025 0.0625,0.43875 0.0638,0.47125 0.0625,1.035 0.0625,-0.0925 0.0637,-1.46 0.0613,1.20875 0.0637,-0.12625 0.0625,-0.69 0.0625,0.54875 0.0625,-1.805 0.0475,0.64375 0.0625,-0.22 0.0625,1.64875 0.0637,-0.51875 0.0625,-0.69 0.0625,-0.6125 0.0625,0.51875 0.0638,0 0.0625,0.21875 0.0625,-0.42375 0.0625,-0.8625 0.0475,-1.13 0.0625,-1.25625 0.0625,-0.0788 0.0475,0.7225 0.0625,-0.5175 0.0475,0.6125 0.0625,0.26625 0.0625,-1.22375 0.0475,-0.69125 0.0625,0 0.0475,-0.125 0.0612,-1.25625 0.0487,-1.89875 0.0625,1.94625 0.0475,1.6475 0.0613,1.03625 0.0475,-0.69125 0.0638,1.03625 0.0625,0.7225 0.0625,-1.55375 0.0475,-1.24 0.0625,-0.4875 0.0462,2.0725 0.0637,1.05125 0.0625,-1.6475 0.0475,1.03625 0.0625,2.51 0.0625,-2.51 0.0625,-2.1975 0.0475,0.2975 0.0638,2.9825 0.0625,-1.38125 0.0625,0.5175 0.0625,1.5075 0.0625,1.035 0.0625,0.26625 0.0625,0 0.0637,-1.6 0.0625,0.0788 0.0625,0.22 0.0625,-0.34625 0.0475,0.565 0.125,-2.165 0.0637,0.565 0.0638,-0.3925 0.0625,0.44 0.045,-2.16625 0.0637,-1.47625 0.0625,0.44 0.0487,2.46375 0.0613,-0.2975 0.0625,-1.47625 0.0475,-0.42375 0.0637,-0.1725 0.0462,0.34625 0.0625,0.47 0.0638,-0.91 0.0462,0.26625 0.0625,0.29875 0.0475,0.0475 0.0625,1.7575 0.0625,1.0825 0.0637,-3.0125 0.0475,-0.1425 0.0625,2.5125 0.0625,0.565 0.0625,0.0462 0.0625,0.8475 0.0625,-0.59625 0.0638,0.44 0.0625,0.20375 0.0625,-0.0788 0.0612,-0.91 0.065,0.785 0.0613,-1.08375 0.0637,-0.0462 0.0625,-0.47125 0.0638,0.125 0.0625,1.25625 0.0625,0.0775 0.0625,-1.28625 0.0637,0.345 0.0613,0.47125 0.0637,1.03625 0.0625,1.4275 0.0625,-0.095 0.0788,0.34625 0.0625,0.1725 0.0638,-2.1975 0.0625,-1.89875 0.0625,-0.29875 0.0625,0.895 0.0625,-0.42375 0.0625,-1.94625 0.0475,-2.02375 0.0638,0.51875 0.0462,2.32125 0.0625,-0.125 0.0638,0.0463 0.0625,-0.1725 0.0625,0.42375 0.0475,-1.89875 0.0625,-0.1725 0.0625,0 0.0463,-0.815 0.0637,1.0825 0.0625,2.36875 0.0625,0.73875 0.0625,-2.8875 0.0475,1.035 0.0637,1.50625 0.0613,-0.1725 0.0625,0.64375 0.0637,0.91 0.0625,1.50625 0.0788,0.345 0.0638,-1.23875 0.0612,0.37625 0.0788,1.0825 0.0637,-2.02375 0.0625,1.0825 0.0625,0.1725 0.0788,2.10375 0.0625,-1.20875 0.0775,-1.20875 0.0638,1.38125 0.0625,0.0937 0.0788,-0.2975 0.0625,-0.73875 0.0787,0.81625 0.0625,-1.89875 0.0638,-0.69 0.0625,4.2375 0.0775,-1.35 0.0638,-1.16125 0.0775,0.91 0.0625,0.34625 0.0788,-1.25625 0.0637,0.5175 0.0788,2.025 0.0625,-0.5975 0.0775,-2.19625 0.0638,0.69 0.0775,0.20375 0.0638,-0.0775 0.0787,0.5175 0.0613,-1.2075 0.0637,1.08125 0.0788,-0.39125 0.0613,-1.5225 0.0787,-0.20375 0.0638,1.255 0.0625,1.03625 0.0788,-0.9575 0.0625,-0.91125 0.0787,-1.035 0.0625,0.095 0.0625,2.19625 0.0788,-0.0475 0.0625,-0.5175 0.0638,0.785 0.0775,-1.03625 0.0625,-0.0937 0.0788,-0.91 0.0637,-1.16125 0.0613,-0.3925 0.0637,1.6 0.0625,-0.125 0.0775,-0.98875 0.0638,-1.55375 0.0637,0.69 0.0625,0.5975 0.0625,-1.25625 0.0625,-0.98875 0.0625,-1.9775 0.0475,-0.0937 0.0625,-0.1725 0.0625,-0.51875 0.0487,-2.33875 0.0613,0.22 0.0462,2.5125 0.0638,1.45875 0.0637,0.4875 0.0613,0.4225 0.0475,0.12625 0.0625,-0.47125 0.0638,0.2975 0.0625,-1.23875 0.0625,-0.345 0.0462,0.5025 0.0638,1.30125 0.0625,0.91125 0.0637,0.42375 0.0613,-0.0788 0.0625,-1.60125 0.0637,1.3025 0.0625,0.98875 0.0788,0.1725 0.0638,1.33375 0.0612,-1.38 0.0625,-1.46 0.0638,0.55 0.0625,0 0.0625,-0.64375 0.0625,-1.11375 0.0637,-1.00625 0.0625,-0.68875 0.0625,1.12875 0.0462,-0.44 0.0638,-1.42625 0.0625,2.2125 0.0625,0.39125 0.0637,-0.83125 0.0625,-0.20375 0.0475,0.2975 0.0625,1.46 0.0613,1.03625 0.065,0.21875 0.0775,-0.42375 0.0625,-0.14125 0.0625,-0.345 0.0637,0.345 0.0613,0 0.0637,-0.69 0.0625,-0.1725 0.0638,-2.27625 0.0612,-1.17625 0.0475,2.165 0.0625,0.81625 0.0625,-0.5175 0.0638,-0.47 0.0637,0.21875 0.0613,-0.0937 0.0625,-1.38125 0.0487,0.47125 0.0612,-1.0825 0.0638,-0.55 0.0625,-0.14125 0.0475,0.0462 0.0625,-0.345 0.0462,-1.255 0.0637,0.2675 0.0463,-0.56625 0.0637,-0.2975 0.0462,1.0825 0.0625,1.20875 0.0638,-0.565 0.0462,-0.56625 0.0638,0.6125 0.0462,-1.2075 0.0637,-1.005 0.0475,0.3925 0.0613,-0.7375 0.0475,0.2675 0.0625,0.7375 0.0475,-2.21375 0.0625,-0.565 0.0475,1.03625 0.0462,0.14125 0.0638,0.86375 0.0462,0.0463 0.0638,-0.18875 0.0462,-0.50125 0.0475,-1.82125 0.0637,-1.0825 0.0462,1.2075 0.0475,0.3925 0.0625,-0.34375 0.0462,0.68875 0.0475,-0.47 0.0638,0.64375 0.0462,-0.8625 0.0462,-1.30375 0.0638,2.245 0.0475,0.48625 0.0613,-0.22 0.0475,0.0475 0.0475,-0.51875 0.0625,-0.1725 0.0488,0.51875 0.0612,-0.31375 0.0462,-1.0675 0.0488,-0.22 0.0612,1.115 0.0475,0.56375 0.0625,-0.345 0.0475,0.785 0.0637,0.47125 0.0462,0.26625 0.0625,0.1575 0.0625,-1.035 0.0475,0.34375 0.0625,1.03625 0.0475,-0.205 0.0637,-0.61125 0.0625,-0.98875 0.0463,0.565 0.12625,1.97625 0.0475,0.34625 0.0625,-0.0312 0.0625,-0.14125 0.0637,0.83125 0.0613,0.77 0.0625,0.26625 0.0625,0.25125 0.0637,1.3025 0.0625,0.25125 0.0625,-0.98875 0.0788,-0.7375 0.0625,0.6125 0.0625,0.0775 0.0638,-0.98875 0.0625,0.2525 0.0625,-0.205 0.0637,0.0312 0.0625,0.48625 0.0613,-0.3125 0.0637,0.265 0.0638,0.12625 0.0625,-1.03625 0.0625,-0.21875 0.0788,0.86375 0.0462,-1.68125 0.0625,0.29875 0.0637,-0.345 0.0625,-0.20375" />
    <path
       id="path8455"
       style="fill:none;stroke:#00a650;stroke-width:0.625;stroke-linecap:butt;stroke-linejoin:miter;stroke-miterlimit:2;stroke-dasharray:none;stroke-opacity:1"
       d="m 342.80456,303.62029 0.0625,0.0312 0.0625,-0.125 0.0625,0.39125 0.0638,-1.6475 0.0625,-0.47 0.0475,0.785 0.0625,0.98875 0.0625,0.47 0.0625,-0.64375 0.0625,0.25125 0.0625,-1.28625 0.0638,-1.475 0.0475,0.34375 0.0625,0.095 0.0625,0.64375 0.0625,-0.29875 0.0475,-1.20875 0.0625,-0.48625 0.0625,0.1725 0.0475,1.13 0.0637,0.08 0.0613,-0.2525 0.0475,-0.0937 0.0625,-0.64375 0.0637,0.8625 0.0625,0.51875 0.0462,-2.07125 0.0625,0.0937 0.0475,-0.565 0.0638,0.94125 0.0612,-0.25 0.0488,-0.095 0.0625,-0.98875 0.0475,-0.0475 0.0612,1.1775 0.0638,-1.0825 0.0475,-0.3925 0.0625,1.20875 0.0475,-0.51875 0.0612,-0.21875 0.0475,0.39125 0.0625,0.6125 0.0637,-1.60125 0.0463,-0.26625 0.0625,0.6125 0.0487,-0.22 0.0612,-0.25125 0.0475,0 0.0625,0.5175 0.0638,-0.0937 0.0462,-0.565 0.0625,-0.20375 0.0488,0.25125 0.0612,0.69 0.0475,-0.7375 0.0625,-0.42375 0.0462,-0.61125 0.0638,-0.29875 0.0475,0.785 0.0625,1.33375 0.0475,-0.785 0.0612,0.86375 0.0638,1.255 0.0637,0.26625 0.0463,-0.7375 0.0625,0.0475 0.0637,-0.14125 0.0625,-1.8525 0.0462,-0.91 0.0625,-0.21875 0.0475,0.65875 0.0625,-0.44 0.0475,-0.56375 0.0625,0.39125 0.0462,0.2675 0.065,0.1725 0.06,-0.0937 0.0475,2.58875 0.0638,-0.37625 0.0638,-0.51875 0.0625,0.29875 0.0625,0.25 0.0475,0.315 0.0612,1.0675 0.0638,1.56875 0.0625,-0.0937 0.0775,-0.69125 0.065,-0.125 0.0625,0.1725 0.0612,0.47125 0.0638,0.42375 0.0625,-1.335 0.0625,1.475 0.08,2.465 0.0612,-0.17375 0.0788,-0.26625 0.0625,0.51875 0.0788,1.4275 0.08,-0.43875 0.0613,-1.2875 0.0775,0.345 0.08,1.38125 0.0625,-0.3925 0.0775,0.12625 0.0787,2.165 0.0788,1.03625 0.0775,-0.47125 0.095,0.0788 0.08,0.3925 0.0775,2.2125 0.0937,0.54875 0.0788,-2.1175 0.095,0.7375 0.0775,0.64375 0.0937,-0.34625 0.0788,1.0825 0.0937,0.86375 0.095,-0.0787 0.0937,-0.14125 0.095,-0.47 0.0763,0.73625 0.0962,-1.16 0.0937,-1.38125 0.0788,-1.99375 0.095,0.86375 0.0775,-0.0475 0.0788,-0.81625 0.0775,-2.29125 0.0775,2.55875 0.095,1.63125 0.08,-2.24375 0.0775,-0.345 0.095,1.55375 0.0775,0.43875 0.095,0.55 0.0775,1.35 0.095,1.725 0.0925,-0.17125 0.095,-1.08375 0.095,-0.1725 0.0937,-0.76875 0.0788,-0.785 0.0937,-1.255 0.0937,0.5175 0.08,1.64875 0.0925,1.38 0.095,0.0312 0.0937,-0.345 0.0937,-0.42375 0.095,-0.2975 0.0762,-0.44 0.095,-0.91 0.0963,-0.47125 0.0775,-0.7375 0.0937,0.86375 0.0788,-0.55 0.0937,0.0788 0.0788,0.3925 0.0937,-1.85125 0.0787,-0.51875 0.08,-0.1875 0.0925,-0.20375 0.0788,-0.0962 0.0788,-0.9875 0.15625,-0.785 0.0788,0.22 0.08,-0.29875 0.0762,-0.61125 0.0788,-0.25125 0.0638,-0.91 0.0787,0.61125 0.0788,0.1725 0.0775,-1.17625 0.0638,-0.98875 0.0763,-0.7375 0.065,-0.69125 0.0775,1.1775 0.0625,-0.31375 0.0788,-1.16125 0.0625,0 0.0788,0.0788 0.0625,1.05125 0.0788,0.29875 0.0638,-0.86375 0.0775,-1.35 0.0625,-0.0312 0.0788,0.81625 0.0637,-0.29875 0.0625,-0.0937 0.0788,-0.59625 0.06,-1.1775 0.0637,-0.125 0.0788,-0.785 0.0638,0.1425 0.0625,-0.0962 0.0625,-0.54875 0.0612,-0.91 0.0638,-1.8675 0.0638,-0.1725 0.0625,-0.86375 0.0638,0.315 0.0462,-1.77375 0.0625,-1.8675 0.0462,-0.0312 0.0638,-0.69 0.0475,-0.56625 0.0637,0.25125 0.0462,0.48625 0.0625,0.345 0.0475,0.205 0.0613,0.26625 0.0475,0.59625 0.0638,0.44 0.0638,0.2975 0.045,0.73875 0.0638,0.2975 0.0612,0.22 0.0638,1.6 0.0625,0.91 0.0625,1.9 0.0788,1.16125 0.0638,1.13 0.0788,-0.31375 0.0775,1.17625 0.0788,1.24125 0.0787,0.83125 0.0788,0.25 0.0788,0.73875 0.0763,0.78375 0.095,1.6325 0.095,1.03625 0.0775,1.4275 0.11,1.03625 0.0963,-0.29875 0.0925,-0.6425 0.095,-0.17375 0.0925,-0.18875 0.095,-0.25 0.0937,-1.64875 0.095,-0.25125 0.0937,0.64375 0.0925,0.73875 0.095,1.2075 0.0937,1.16125 0.0937,1.1775 0.11125,0.2975 0.11,0.22 0.0937,0.12625 0.11125,-0.2675 0.1075,-0.64375 0.11125,-0.345 0.0937,0.345 0.11,1.25625 0.11,-0.29875 0.0937,-0.5175 0.11125,-0.0937 0.10875,-0.12625 0.11125,0.785 0.1075,-0.3925 0.095,-0.83125 0.11,0.48625 0.11,0.895 0.11,0 0.11,-0.0788 0.11,0.69 0.11125,0.125 0.105,-0.4225 0.1125,-1.25625 0.11,-0.64375 0.0937,-0.0937 0.11125,-0.94125 0.11,0.72125 0.0925,0.34625 0.11125,-0.895 0.0925,-2.26 0.10875,-0.0312 0.0962,1.11375 0.10875,1.60125 0.0963,0.3925 0.10875,0.0462 0.11,-0.65875 0.1075,1.42875 0.11125,0.9575 0.11125,-1.7275 0.11,-1.255 0.095,1.4275 0.125,1.5075 0.10875,-0.5175 0.11125,-0.12625 0.10875,-0.65875 0.11,0.31375 0.11,-0.785 0.10875,-2.1975 0.0962,-1.2075 0.0925,0.69 0.11,0.91 0.10875,0.98875 0.11125,0.59625 0.11,0.095 0.11,-0.22 0.11,0.8625 0.11,0.64375 0.11,-0.0312 0.12375,0.51875 0.11125,0.72125 0.12625,0.43875 0.12375,0.29875 0.11,0.3925 0.12625,-0.91 0.12625,0.43875 0.12375,0.91125 0.1275,-0.095 0.12375,0.2975 0.12625,-0.0775 0.125,-0.17375 0.125,0.8175 0.1275,0.0462 0.125,-0.12625 0.14,0.69125 0.1275,-0.22 0.12625,0 0.14,-0.61125 0.12375,-0.0787 0.1275,0.69 0.14125,-0.2975 0.125,-0.22 0.12625,0.565 0.14125,-0.7375 0.125,-0.12625 0.125,0.5975 0.14125,0.61125 0.1275,-1.5525 0.12375,-1.03625 0.125,0.89375 0.14125,0 0.1275,0.7375 0.14125,1.1625 0.125,-2.025 0.125,-1.55375 0.12625,1.13 0.12375,0.37625 0.1275,-0.5175 0.14125,0.31375 0.125,0 0.1275,-0.9575 0.12125,-1.0825 0.12625,-0.69125 0.11125,-1.63125 0.12625,1.72625 0.125,0.42375 0.125,0.1725 0.11,-0.47125 0.12625,-0.125 0.12375,-0.31375 0.11,-1.335 0.1275,0.17375 0.11,-0.51875 0.12625,-0.91 0.10875,-0.345 0.10875,0.9575 0.1275,0.25 0.11,-0.1725 0.10875,-2.14875 0.11,-0.48625 0.10875,0.8775 0.11125,-0.61125 0.1075,-0.5175 0.11125,-0.12625 0.11125,0 0.11,0.0312 0.1075,0.6125 0.11125,-1.13 0.0937,-0.64375 0.11125,-0.0475 0.1075,0.44 0.11,0.0462 0.0962,0.47125 0.10875,-0.98875 0.11,-0.0475 0.0937,-0.43875 0.11,-0.37625 0.1075,0.29875 0.0963,0.39125 0.11,-0.69 0.11,-1.225 0.0937,0.34625 0.11,0.87875 0.095,0.72125 0.10875,0.91 0.11,0.12625 0.11,1.1775 0.11,0.0312 0.125,-0.0788 0.11,-0.0475 0.11125,0 0.12375,0.565 0.10875,1.08375 0.1275,0.9875 0.125,1.72625 0.12625,0 0.12625,-1.33375 0.125,-1.0825 0.12625,0.8625 0.125,1.13 0.14125,0.9425 0.125,-0.345 0.14,-1.1625 0.1275,-0.78375 0.125,-1.38125 0.12625,-0.81625 0.10875,0.9425 0.125,0.83125 0.14375,-0.0475 0.1225,1.03625 0.1425,2.29125 0.1425,1.13 0.13875,0.0788 0.1425,0.39125 0.1425,-1.2075 0.14,-1.13 0.14125,-0.42375 0.14125,-0.34625 0.14,-0.43875 0.1275,0.1725 0.14125,-0.47125 0.12375,-0.8625 0.1425,-0.86375 0.12625,-0.48625 0.125,1.57 0.14125,0.345 0.14125,1.4125 0.14,0.43875 0.12625,-1.13 0.1425,-0.98875 0.14,-0.25125 0.1275,1.1625 0.14,0.0462 0.14125,-1.5525 0.12625,-0.6125 0.14,-1.25625 0.1275,0.785 0.12375,0.3775 0.12625,-1.115 0.12375,-1.255 0.12625,-1.55375 0.125,-0.12625 0.11125,0.565 0.125,2.84125 0.14125,1.2075 0.125,0.345 0.1425,0.69125 0.14,1.20875 0.1425,-1.2875 0.14125,-0.565 0.14,-0.5175 0.12625,-0.43875 0.14125,-0.0312 0.125,-0.9575 0.14125,-0.0788 0.1275,1.33375 0.14,-0.2975 0.14,-0.26875 0.1275,0.26875 0.14125,-0.51875 0.125,-0.29875 0.14125,-0.21875 0.1275,-0.73875 0.13875,-0.98875 0.125,0.5975 0.12625,-0.91125 0.125,-0.59625 0.12625,-0.69 0.125,-0.26625 0.12625,0.48625 0.125,-0.345 0.12625,-0.44 0.125,0.5175 0.1275,-0.6425 0.1075,1.035 0.125,-2.07125 0.1275,0.59625 0.125,2.29125 0.125,-1.16125 0.125,-2.385 0.12625,-0.64375 0.11,-0.76875 0.125,1.5525 0.12625,1.3825 0.125,0.3925 0.12375,1.1125 0.145,1.08375 0.12375,0.64375 0.1425,0.47 0.13875,1.3025 0.15875,0.81625 0.14125,0.7375 0.15625,0.29875 0.1575,-1.03625 0.15625,-0.125" />
    <path
       id="path8457"
       style="fill:none;stroke:#00a650;stroke-width:0.625;stroke-linecap:butt;stroke-linejoin:miter;stroke-miterlimit:2;stroke-dasharray:none;stroke-opacity:1"
       d="m 391.03081,307.88904 0.14,-0.94125 0.1575,-0.34625 0.1425,0.29875 0.14,-0.7375 0.14125,-0.81625 0.1425,-0.345 0.14125,-0.22 0.14125,-0.0937 0.14125,-0.34625 0.14125,-0.7675 0.14,-0.17375 0.14125,-0.65875 0.1275,-0.72125 0.14,-0.6125 0.12625,-0.34625 0.12375,-0.125 0.1275,-0.26625 0.13875,0.61125 0.1275,-0.22 0.14125,-0.125 0.12375,-0.9575 0.1275,-0.2975 0.125,-0.42375 0.12625,-0.66 0.125,0.14125 0.1275,0 0.12375,-0.0937 0.12625,-0.5175 0.12375,-0.25125 0.12625,0 0.11,-0.83125 0.12625,-0.34625 0.12375,0 0.11125,0.1725 0.125,-0.815 0.1275,0.0462 0.10625,0.42375 0.1275,-0.2975 0.12625,0.5175 0.11,0.0937 0.12625,-0.705 0.1225,-0.2525 0.1125,-0.125 0.125,-0.48625 0.11,0.48625 0.12625,-0.0937 0.125,-0.425 0.12375,-0.26625 0.11125,0.1725 0.12375,0.64375 0.12625,0.0937 0.1275,-0.2975 0.10875,-1.3025 0.12625,-2.025 0.10875,-0.3925 0.11,-1.12875 0.125,-1.41375 0.095,-1.30125 0.11,-0.5975 0.11,-0.0462 0.0937,-1.08375 0.11,-0.125 0.0937,0.125 0.11,-0.1725 0.11,-0.3925 0.095,0.12625 0.10875,0.14 0.11125,-0.3125 0.1075,0.345 0.1125,0.70625 0.10875,0.76875 0.1075,0.565 0.1275,0.29875 0.11,2.29125 0.14,1.6 0.12875,0.7225 0.13875,1.82 0.14125,1.99375 0.15625,1.67875 0.15875,0.0475 0.1575,0.3925 0.155,0.2025 0.17375,1.03625 0.17375,1.005 0.17125,0.7375 0.1725,1.4125 0.18625,0.9575 0.1925,0.90875 0.1875,0.64375 0.20375,1.55375 0.20125,0.34625 0.205,0.8625 0.22,1.60125 0.22125,1.8525 0.235,1.5525 0.25125,0.565 0.235,-0.1725 0.25,0.0475 0.2525,-0.12625 0.23625,-0.7375 0.2325,-0.78375 0.2375,0.3925 0.25125,-0.34625 0.235,0.2975 0.23375,-0.68875 0.25125,0.345 0.2375,0.26625 0.235,-1.13 0.25,0.3925 0.23625,0.785 0.25,-1.475 0.22,-1.5075 0.23625,-0.1725 0.23625,0.12625 0.235,0.6425 0.235,0.095 0.23625,0.25125 0.24875,0.1725 0.2375,-1.08375 0.235,0.34625 0.25125,0.1725 0.235,0.26625 0.25,0.22 0.25125,-0.0475 0.2525,0.25125 0.25,0.36125 0.2525,-0.0937 0.26625,0.81625 0.26625,0.78375 0.26625,0.0788 0.2675,0.0475 0.2675,-0.1725 0.2825,0.21875 0.26625,0.3925 0.2825,-0.14125 0.26625,0.0475 0.28375,-0.59625 0.26625,-0.095 0.28,-0.69 0.26875,-0.43875 0.2675,0.83125 0.26625,-0.565 0.265,-1.0825 0.26875,-0.425 0.2675,0.69125 0.265,-0.565 0.25375,-1.55375 0.265,0.25125 0.25,0.43875 0.2675,0.51875 0.26625,-1.16125 0.25125,0.2975 0.26625,0.77 0.26875,-1.24 0.25,0.2975 0.2675,0.9425 0.2825,-0.86375 0.25,-1.25625 0.2675,-0.72125 0.2525,-0.785 0.24875,0.0475 0.2525,0.29875 0.25,-1.335 0.2525,-1.13 0.235,1.35 0.265,1.805 0.26875,0.5175 0.26625,0.86375 0.2975,2.46375 0.29875,-0.22 0.2825,-1.0675 0.28375,-0.61125 0.2975,-0.59625 0.2675,-0.8325 0.28125,-0.125 0.28125,-0.42375 0.26875,-1.35 0.26625,-1.20875 0.25125,-2.02375 0.23375,-0.69 0.2525,1.945 0.2675,1.5075 0.265,0.91 0.285,0.69 0.28,-0.5175 0.2675,-0.91125 0.2675,-0.69 0.2675,-0.86375 0.265,-2.07 0.25125,-0.51875 0.25125,-0.565 0.25125,1.89875 0.26625,2.1975 0.28375,1.13 0.2975,2.11875 0.3125,0.7375 0.31625,-0.51875 0.31375,-0.1725 0.3125,-1.035 0.29875,0.12625 0.31125,0.94 0.3175,-0.25 0.32875,0.0475 0.31375,0.6425 0.33,-1.13 0.315,0.3925 0.32875,0.26625 0.33,-0.9575 0.3125,-2.02375 0.2975,-2.04 0.28375,-1.60125 0.2825,-0.59625 0.26625,-0.81625 0.26625,-0.14125 0.28375,-0.47 0.2675,-0.56625 0.26625,0 0.265,0.0475 0.2675,-0.0788 0.26875,-1.00375 0.26625,-0.125 0.26625,0.5175 0.26625,0 0.26875,-0.47 0.265,-1.03625 0.26625,-0.47125 0.25125,-0.14125 0.26625,-0.3925 0.2525,-0.6425 0.25125,-0.2525 0.25,-0.39125 0.2525,-0.51875 0.25,-0.2975 0.25,-0.1725 0.2525,-0.44 0.25125,-0.3925 0.235,-0.91 0.25,-1.24 0.23625,2.245 0.2525,-0.17375 0.24875,0.29875 0.26875,0.22 0.25,0.1725 0.2675,0.7375 0.26625,-0.14125 0.2675,-0.59625 0.265,-0.2675 0.26875,0.0475 0.26625,-0.5175 0.26625,-0.125 0.2675,-0.22 0.2825,0.0475 0.26625,0.2975 0.28375,0.81625 0.2825,1.0825 0.29875,-0.12625 0.2975,0.51875 0.2975,0.39125 0.31375,0.12625 0.315,-0.43875 0.2975,-0.64375 0.3125,-0.29875 0.29875,0.73875 0.33125,0.37625 0.3125,-0.55 0.31375,-0.61125 0.33,0.345 0.3125,0.565 0.33125,-0.51875 0.345,1.38125 0.37625,7.64375 0.455,6.56 0.53375,1.72625 0.5325,0.90875 0.56625,0.315 0.565,-0.315 0.55,-2.8075 0.485,-5.05375 0.44125,-4.615 0.40625,-3.67125 0.3925,1.255 0.4075,0.205 0.3925,-1.335 0.3925,-1.20875 0.3925,-0.21875 0.3925,0.0937 0.41,-0.345 0.39,0 0.4075,0.565 0.425,1.72625 0.43875,-0.0462 0.44,-1.5075 0.37625,-0.53375" />
    <path
       id="path8459"
       style="fill:none;stroke:#ed1c24;stroke-width:0.625;stroke-linecap:butt;stroke-linejoin:miter;stroke-miterlimit:2;stroke-dasharray:none;stroke-opacity:1"
       d="m 240.44956,322.48404 1.96125,0 0.99,-0.345 0.9725,11.08 0.98875,11 0.9725,9.6525 0.98875,11.07875 0.9725,2.49625 0.99,-0.0325 0.9725,-2.35375 0.99,-3.3275 0.97125,-1.50625 0.99,-1.39625 0.9725,-1.8975 0.98875,-2.87375 0.9725,-1.91625 0.99,-0.3725 0.97125,0.0775 0.99,0.1875 0.9725,0.26625 0.98875,-0.32875 0.9725,-0.11 0.99,-1.39625 0.97125,-1.21 0.99,-1.23625 0.9725,-1.2725 0.98875,0.815 0.9725,1.11375 0.99,1.365 0.97125,1.16125 0.99,0.18875 0.9725,0.20375 0.98875,-0.20375 0.9725,-1.365 0.99,-4.55125 0.9725,-3.49875 0.98875,-2.40125 0.9725,-2.7625 0.99,-0.76875 0.97125,0.20375 0.99,0.11 0.9725,3.42125 0.98875,5.24 0.97375,-0.1875 0.98875,-5.1625 0.9725,-6.01125 0.98875,-1.945 0.97375,-1.08375 0.9875,0.15625 0.97375,1.665 0.98875,1.7725 0.9725,3.29625 0.98875,2.1975 0.97375,-1.24125 0.9875,-2.275 0.97375,-1.20875 0.98875,-2.73 0.9725,-4.08 0.98875,-4.1275 0.97375,-6.89 0.98875,-0.81625 0.9725,6.105 0.98875,11.0325 0.97375,16.52625 0.9875,13.19875 0.97375,2.05375 0.98875,0.73875 0.9725,-0.73875 0.98875,-0.26625 0.97375,-0.29875 0.9875,-0.68875 0.97375,-2.05875 0.98875,-2.60375 0.9725,-1.585 0.98875,0.1425 0.97375,0.14125 0.9875,-1.20875 0.97375,1.16125 0.98875,1.77375 0.97375,-1.3825 0.9875,-3.39 0.97375,-0.25 0.9875,0.47 0.97375,1.35 0.98875,2.7 0.97375,-1.42875 0.9875,1.0675 0.97375,-0.4875 0.98875,-1.31875 0.97375,-1.97625 0.9875,-2.13375 0.97375,-1.3825 0.9875,-7.13875 0.97375,-6.13625 0.98875,-3.45375 0.97375,-2.87125 0.9875,-0.88 0.97375,3.61125 0.9875,3.16875 0.98875,2.22875 0.97375,1.53875 0.98875,0.0638 0.9725,-1.415 0.98875,-1.27 0.9725,-0.97375 0.98875,-1.695 0.97375,0.80125 0.9875,3.56375 0.975,3.09125 0.9875,2.995 0.97375,3.9875 0.9875,3.34125 0.975,-0.72125 0.9875,-2.9025 0.97375,-4.55125 0.9875,-5.57125 0.97375,-4.95875 0.9875,0.76875 0.975,3.29625 0.9875,3.89125 0.975,3.87625 0.98625,5.2575 0.97375,4.84875 0.98875,1.4775 0.97375,0.0637 0.98625,-0.975 0.975,-0.44 0.98875,-0.265 0.97375,-0.205 0.98625,-0.47 0.97375,-0.235 0.98875,1.58375 0.97375,0.50125 0.98875,-0.6575 0.9725,-0.88125 0.98875,-1.23875 0.97375,-1.8525 0.9875,-1.27125 0.975,-1.2075 0.98625,-2.43125 0.975,-5.7125 0.9875,-3.955 0.97375,-2.21375 0.9875,-1.25625 0.97375,2.77875 0.9875,5.61625 0.975,2.51125 0.9875,0.78625 0.97375,-2.14875 0.9875,-2.23 0.97375,-3.625 0.9875,-1.67875 0.975,-1.24 0.9875,-1.68 0.97375,-0.64375 0.9875,0.425 0.97375,0.72125 0.9875,0.75375 0.975,-1.0675 0.9875,-1.0675 0.97375,-2.57375 0.98875,-3.59375 0.97375,-4.63 0.98625,-2.275 0.975,5.46125 0.98875,6.795 0.97375,8.11375 0.98625,15.88125 0.97375,6.1525 0.98875,2.44875 0.975,-0.14125 0.98625,-1.92875 0.97375,-6.40375 0.98875,-5.9175 0.97375,-0.235 0.98625,0.8475 0.975,1.20625 0.98875,2.81 0.97375,1.50625 0.98625,-0.42125 0.97375,-1.46 0.98875,-2.355 0.975,-2.84 0.9875,-2.66875 0.9725,-1.14625 0.98875,0.31625 0.97375,0.98875 0.9875,-0.3625 0.975,-1.8825 0.9875,-2.52625 0.97375,-2.59 0.9875,-1.6325 0.97375,-0.37625 0.9875,1.4125 0.975,1.60125 0.9875,-0.33 0.97375,-1.9925 0.9875,-3.97125 0.97375,-4.12875 0.9875,-4.97375 0.98875,-5.54 0.97375,-3.76625 0.98875,-1.3025 0.9725,-0.3925 0.98875,1.63125 0.9725,2.15125 0.98875,2.8875 0.97375,3.17 0.99,3.71875 0.97125,4.065 0.98875,4.425 0.97375,6.655 0.98875,7.28125 0.9725,6.1225 0.98875,5.5225 0.97375,4.41 0.98875,1.57 0.97125,-0.43875 0.98875,-1.66375 0.975,-2.245 0.98875,-1.6325 0.97125,-1.02 0.98875,-1.0525 0.97375,-2.9025 0.98875,-4.20625" />
    <text
       id="text8461"
       style="font-variant:normal;font-weight:normal;font-size:8.13750076px;font-family:HelveticaNeue;-inkscape-font-specification:HelveticaNeue-Roman;writing-mode:lr-tb;fill:#231f20;fill-opacity:1;fill-rule:nonzero;stroke:none"
       x="222.69705"
       y="275.09155">
      <tspan
         id="tspan8463"
         y="275.09155"
         x="222.69705 227.2215 231.74594">200</tspan>
      <tspan
         id="tspan8465"
         y="246.29291"
         x="222.69705 227.2215 231.74594">250</tspan>
      <tspan
         id="tspan8467"
         y="217.49432"
         x="222.69705 227.2215 231.74594">300</tspan>
      <tspan
         id="tspan8469"
         y="325.0965"
         x="465.72998 469.79877 474.32318 478.84766">500</tspan>
      <tspan
         id="tspan8471"
         y="303.50201"
         x="465.72998 469.79877 474.32318 478.84766">450</tspan>
      <tspan
         id="tspan8473"
         y="281.90753"
         x="465.72998 469.79877 474.32318 478.84766">400</tspan>
    </text>
    <text
       id="text8475"
       style="font-variant:normal;font-weight:normal;font-size:6.9749999px;font-family:HelveticaNeue;-inkscape-font-specification:HelveticaNeue-Roman;writing-mode:lr-tb;fill:#231f20;fill-opacity:1;fill-rule:nonzero;stroke:none"
       x="238.49332"
       y="396.70154">
      <tspan
         id="tspan8477"
         y="396.70154"
         x="238.49332 255.18448 258.71384 261.89444 262.78723 266.31659 269.84592 277.87415 281.05475 284.58411 287.76471 288.6575 292.18686 295.71622 302.38431 305.56491 309.09424 312.27487 313.16766 316.69702 320.22638 326.90842 330.43774 333.9671 337.14771 338.0405 341.56985 345.09918 351.41858 354.94788 358.47723 361.65784 362.55066 366.08002 369.60938 375.94263 379.47198 383.00137 386.18198 387.0748 390.60416 394.13351 400.46677 403.99612 407.52548 410.70609 411.59891 415.12827 418.65756 424.9769 428.50626 432.03561 435.21622 436.10904 439.6384 443.16776 449.50107 453.03033 456.55969 459.7403 460.63312 464.16248 467.69177">050,000100,000150,000200,000250,000300,000350,000400,000450,000</tspan>
      <tspan
         id="tspan8479"
         y="208.75249"
         x="237.71838 255.18378 258.71313 262.24249 263.13528 266.66464 270.19397 277.87344 281.4028 284.93216 288.46152 289.35431 292.88367 296.41299 302.38361 305.91296 309.44229 312.97168 313.86444 317.3938 320.92316 326.90771 330.43704 333.9664 337.49576 338.38855 341.91791 345.44727 351.41785 354.9472 358.47656 362.00592 362.89868 366.42804 369.9574 375.94196 379.47131 383.0007 386.53006 387.42282 390.95218 394.48154 400.46609 403.99545 407.52481 411.05417 411.94693 415.47629 419.00565 424.97623 428.50558 432.03494 435.5643 436.45706 439.98642 443.51578 449.50034 453.02966 456.55902 460.08838 460.98114 464.5105 468.03986">050,000100,000150,000200,000250,000300,000350,000400,000450,000</tspan>
    </text>
    <text
       id="text8481"
       style="font-style:normal;font-variant:normal;font-weight:normal;font-stretch:normal;font-size:7.5px;line-height:125%;font-family:HelveticaNeue;-inkscape-font-specification:'HelveticaNeue, Normal';text-align:start;writing-mode:lr-tb;text-anchor:start;fill:#363639;fill-opacity:1;fill-rule:nonzero;stroke:none"
       transform="matrix(0,-1,1,0,0,0)"
       x="-292.03906"
       y="211.61206">
      <tspan
         id="tspan20346"
         x="-292.03906"
         y="211.61206">CO Atmosfrico</tspan>
    </text>
    <text
       id="text8485"
       style="font-variant:normal;font-weight:normal;font-size:5.8125px;font-family:HelveticaNeue;-inkscape-font-specification:HelveticaNeue-Roman;writing-mode:lr-tb;fill:#363639;fill-opacity:1;fill-rule:nonzero;stroke:none"
       transform="matrix(0,-1,1,0,0,0)"
       x="-281.59906"
       y="214.77457">
      <tspan
         id="tspan8487"
         y="214.77457"
         x="-281.59906">2</tspan>
    </text>
    <text
       id="text8489"
       style="font-variant:normal;font-weight:normal;font-size:8.13750076px;font-family:HelveticaNeue;-inkscape-font-specification:HelveticaNeue-Roman;writing-mode:lr-tb;fill:#363639;fill-opacity:1;fill-rule:nonzero;stroke:none"
       transform="matrix(0,-1,1,0,0,0)"
       x="-278.10431"
       y="219.61206">
      <tspan
         id="tspan8491"
         y="219.61206"
         x="-278.10431 -275.9967 -271.1712 -268.90894 -264.08344 -261.82117 -254.87988 -252.61768 -248.54895 -246.28668">(p.p.m.v.)</tspan>
    </text>
    <text
       id="text8493"
       style="font-style:normal;font-variant:normal;font-weight:normal;font-stretch:normal;font-size:7.5px;line-height:125%;font-family:HelveticaNeue;-inkscape-font-specification:'HelveticaNeue, Normal';text-align:start;writing-mode:lr-tb;text-anchor:start;fill:#363639;fill-opacity:1;fill-rule:nonzero;stroke:none"
       x="295.91391"
       y="199.28668">
      <tspan
         id="tspan20270"
         x="295.91391"
         y="199.28668">Aos antes del presente</tspan>
      <tspan
         id="tspan20272"
         x="295.91391"
         y="208.66168" />
      <tspan
         id="tspan20274"
         x="295.91391"
         y="218.03668" />
      <tspan
         id="tspan20276"
         x="295.91391"
         y="227.41168" />
      <tspan
         id="tspan20278"
         x="295.91391"
         y="236.78668" />
      <tspan
         id="tspan20280"
         x="295.91391"
         y="246.16168" />
      <tspan
         id="tspan20282"
         x="295.91391"
         y="255.53668" />
      <tspan
         id="tspan20284"
         x="295.91391"
         y="264.91168" />
      <tspan
         id="tspan20286"
         x="295.91391"
         y="274.28668" />
      <tspan
         id="tspan20288"
         x="295.91391"
         y="283.66168" />
      <tspan
         id="tspan20290"
         x="295.91391"
         y="293.03668" />
      <tspan
         id="tspan20292"
         x="295.91391"
         y="302.41168" />
      <tspan
         id="tspan20294"
         x="295.91391"
         y="311.78668" />
      <tspan
         id="tspan20296"
         x="295.91391"
         y="321.16168" />
      <tspan
         id="tspan20298"
         x="295.91391"
         y="330.53668" />
      <tspan
         id="tspan20300"
         x="295.91391"
         y="339.91168" />
      <tspan
         id="tspan20302"
         x="295.91391"
         y="349.28668" />
      <tspan
         id="tspan20304"
         x="295.91391"
         y="358.66168" />
      <tspan
         id="tspan20306"
         x="295.91391"
         y="368.03668" />
      <tspan
         id="tspan20308"
         x="295.91391"
         y="377.41168" />
      <tspan
         id="tspan20310"
         x="295.91391"
         y="386.78668" />
      <tspan
         id="tspan20312"
         x="295.91391"
         y="396.16168" />
      <tspan
         id="tspan20314"
         x="295.91391"
         y="405.53668">Aos antes del presente</tspan>
    </text>
    <text
       id="text8499"
       style="font-variant:normal;font-weight:normal;font-size:8.13750076px;font-family:Symbol;-inkscape-font-specification:Symbol;writing-mode:lr-tb;fill:#231f20;fill-opacity:1;fill-rule:nonzero;stroke:none"
       transform="matrix(0,-1,1,0,0,0)"
       x="-312.38782"
       y="491.82208">
      <tspan
         id="tspan8501"
         y="491.82208"
         x="-312.38782"></tspan>
    </text>
    <text
       id="text8503"
       style="font-style:italic;font-variant:normal;font-size:8.13750076px;font-family:HelveticaNeue;-inkscape-font-specification:HelveticaNeue-Italic;writing-mode:lr-tb;fill:#231f20;fill-opacity:1;fill-rule:nonzero;stroke:none"
       transform="matrix(0,-1,1,0,0,0)"
       x="-308.36786"
       y="491.82208">
      <tspan
         id="tspan8505"
         y="491.82208"
         x="-308.36786">D</tspan>
    </text>
    <text
       id="text8507"
       style="font-variant:normal;font-weight:normal;font-size:8.13750076px;font-family:HelveticaNeue;-inkscape-font-specification:HelveticaNeue-Roman;writing-mode:lr-tb;fill:#231f20;fill-opacity:1;fill-rule:nonzero;stroke:none"
       transform="matrix(0,-1,1,0,0,0)"
       x="-300.37769"
       y="491.82208">
      <tspan
         id="tspan8509"
         y="491.82208"
         x="-300.37769 -298.27002 -288.92819">()</tspan>
    </text>
    <text
       id="text8511"
       style="font-variant:normal;font-weight:normal;font-size:8.13750076px;font-family:Symbol;-inkscape-font-specification:Symbol;writing-mode:lr-tb;fill:#231f20;fill-opacity:1;fill-rule:nonzero;stroke:none"
       x="254.63205"
       y="300.52777">
      <tspan
         id="tspan8513"
         y="300.52777"
         x="254.63205"></tspan>
    </text>
    <text
       id="text8515"
       style="font-style:italic;font-variant:normal;font-size:8.13750076px;font-family:HelveticaNeue;-inkscape-font-specification:HelveticaNeue-Italic;writing-mode:lr-tb;fill:#231f20;fill-opacity:1;fill-rule:nonzero;stroke:none"
       x="258.65198"
       y="300.52777">
      <tspan
         id="tspan8517"
         y="300.52777"
         x="258.65198">D</tspan>
    </text>
    <text
       id="text8519"
       style="font-variant:normal;font-weight:normal;font-size:8.13750076px;font-family:HelveticaNeue;-inkscape-font-specification:HelveticaNeue-Roman;writing-mode:lr-tb;fill:#231f20;fill-opacity:1;fill-rule:nonzero;stroke:none"
       x="249.33374"
       y="243.90948">
      <tspan
         id="tspan8521"
         y="243.90948"
         x="249.33374 255.20901">CO</tspan>
    </text>
    <text
       id="text8523"
       style="font-variant:normal;font-weight:normal;font-size:5.8125px;font-family:HelveticaNeue;-inkscape-font-specification:HelveticaNeue-Roman;writing-mode:lr-tb;fill:#231f20;fill-opacity:1;fill-rule:nonzero;stroke:none"
       x="261.39206"
       y="246.23529">
      <tspan
         id="tspan8525"
         y="246.23529"
         x="261.39206">2</tspan>
    </text>
    <text
       id="text8527"
       style="font-style:normal;font-variant:normal;font-weight:normal;font-stretch:normal;font-size:5px;line-height:125%;font-family:HelveticaNeue;-inkscape-font-specification:'HelveticaNeue, Normal';text-align:start;writing-mode:lr-tb;text-anchor:start;fill:#231f20;fill-opacity:1;fill-rule:nonzero;stroke:none"
       x="263.91956"
       y="358.32031">
      <tspan
         id="tspan20328"
         x="263.91956"
         y="358.32031">Volumen</tspan>
      <tspan
         id="tspan20330"
         x="263.91956"
         y="364.57031">de hielo</tspan>
      <tspan
         id="tspan20332"
         x="263.91956"
         y="370.82031">(inversin</tspan>
      <tspan
         id="tspan20334"
         x="263.91956"
         y="377.07031">relativa)</tspan>
    </text>
    <path
       id="path8535"
       style="fill:#ffffff;fill-opacity:1;fill-rule:evenodd;stroke:none"
       d="m 227.62581,360.52404 -4.19124,0 2.10374,4.1925 2.0875,-4.1925" />
    <path
       id="path8537"
       style="fill:none;stroke:#231f20;stroke-width:0.625;stroke-linecap:butt;stroke-linejoin:miter;stroke-miterlimit:2;stroke-dasharray:none;stroke-opacity:1"
       d="m 227.62581,360.52404 -4.19124,0 2.10374,4.1925 2.0875,-4.1925 z m -2.0875,0.26875 0,-34.00875" />
    <text
       id="text8539"
       style="font-style:normal;font-variant:normal;font-weight:normal;font-stretch:normal;font-size:7.5px;line-height:125%;font-family:HelveticaNeue;-inkscape-font-specification:'HelveticaNeue, Normal';text-align:center;writing-mode:lr-tb;text-anchor:middle;fill:#231f20;fill-opacity:1;fill-rule:nonzero;stroke:none"
       transform="matrix(0,-1,1,0,0,0)"
       x="-352.65778"
       y="211.68704">
      <tspan
         id="tspan20338"
         x="-352.65778"
         y="211.68704">Crecimiento de lminas</tspan>
      <tspan
         id="tspan20340"
         x="-352.65778"
         y="221.06204">de hielo</tspan>
    </text>
  </g>
</svg>
