<?xml version="1.0" encoding="UTF-8"?>
<svg xmlns="http://www.w3.org/2000/svg"
    xmlns:latexdraw="http://latexdraw.sourceforge.net/namespaces/latexdraw"
    version="1.1" baseProfile="full">
    <g>
        <g latexdraw:type="bezierCurve" id="id72">
            <path
                d="M 430.0 190.0 C 400.0 250.92307692307688 74.16370345454527 814.595825117671 110.0 850.0 C 145.83629654545473 885.404174882329 823.2522639552833 859.6893973795185 830.0 809.3846153846154 C 836.7477360447167 759.0798333897122 500.0 200.15384615384616 490.0 190.0 C 480.0 179.84615384615384 460.0 129.07692307692312 430.0 190.0 z "
                stroke-width="2.0" stroke="black" fill="#fefefe" latexdraw:rotationAngle="0.0"/>
        </g>
        <g latexdraw:type="bezierCurve" id="id58">
            <path
                d="M 394.7717357910908 425.90296495956886 C 380.0880870162393 471.80215476420153 293.92079062494406 779.0057459403483 309.73333333333335 824.6315611286898 C 325.5458760417227 870.2573763170316 525.7163512251459 875.899189804641 540.4000000000001 829.9999999999999 C 555.0836487748549 784.1008101953588 461.4053665208143 469.2646292045223 445.5928238124221 423.63881401617266 "
                stroke-width="2.0" stroke="#010101" fill="#015fc0" latexdraw:rotationAngle="0.0"/>
        </g>
        <g latexdraw:type="bezierCurve" id="id64">
            <path
                d="M 440.0 210.0 C 433.2522639552835 259.54258832831346 384.16370345454527 815.1322520098277 420.0 850.0 C 455.83629654545473 884.8677479901723 764.2046449076643 837.6378264235518 770.952380952381 788.0952380952381 C 777.7001169970977 738.5526497669243 515.8362965454548 244.86774799017223 480.0 210.0 "
                stroke-width="2.0" stroke="black" fill="url(#pattern64)" latexdraw:rotationAngle="0.0"/>
        </g>
        <g latexdraw:type="bezierCurve" id="id56">
            <path
                d="M 389.9999999999999 406.25 C 363.73193563053525 448.7939630768193 165.35908642119355 786.4933869624201 190.00000000000026 830.0000000000007 C 214.64091357880696 873.5066130375812 648.2773901759917 871.6348721677272 674.5454545454553 829.0909090909098 C 700.8135189149189 786.5469460140924 471.89366083155363 448.48829801926547 447.2527472527468 404.9816849816848 "
                stroke-width="2.0" stroke="black" fill="url(#pattern56)" latexdraw:rotationAngle="0.0"/>
        </g>
        <g latexdraw:type="circle" id="id51">
            <circle cx="420.0" cy="410.0" r="29.0"
                latexdraw:borderPos="outer" stroke-width="2.0"
                stroke="black" fill="#fefefe"/>
        </g>
        <g latexdraw:type="circle" id="id69">
            <circle cx="460.0" cy="190.0" r="29.0"
                latexdraw:borderPos="outer" stroke-width="2.0"
                stroke="black" fill="#fefefe"/>
        </g>
        <g latexdraw:type="bezierCurve" id="id175">
            <path
                d="M 486.9565217391304 539.1304347826086 C 486.9565217391304 579.1304347826086 382.6086956521739 579.1304347826086 382.6086956521739 539.1304347826086 "
                stroke-width="2.0" stroke="black" fill="none"
                latexdraw:rotationAngle="0.0" marker-end="url(#arrow1-175)"/>
        </g>
        <g latexdraw:type="bezierCurve" id="id199">
            <path
                d="M 330.4347826086956 607.391304347826 C 330.4347826086956 647.391304347826 513.0434782608695 647.391304347826 513.0434782608695 607.391304347826 "
                stroke-width="2.0" stroke="black" fill="none"
                latexdraw:rotationAngle="0.0" marker-end="url(#arrow1-199)"/>
        </g>
        <g latexdraw:type="bezierCurve" id="id232">
            <path
                d="M 557.5757575757574 733.333333333333 C 557.5757575757574 773.333333333333 448.4848484848483 773.333333333333 448.4848484848483 733.333333333333 "
                stroke-width="2.0" stroke="black" fill="none"
                latexdraw:rotationAngle="0.0" marker-end="url(#arrow1-232)"/>
        </g>
        <g latexdraw:type="rectangle" id="id275">
            <rect x="341.7999999999996" y="642.7575757575755"
                width="56.78787878787864" height="24.363636363636488"
                latexdraw:borderPos="outer" stroke-width="2.0"
                stroke="#015ec0" fill="#015fc0"/>
        </g>
        <g latexdraw:type="rectangle" id="id289">
            <rect x="230.9999999999999" y="746.7575757575755"
                width="76.78787878787864" height="24.363636363636488"
                latexdraw:borderPos="outer" stroke-width="2.0"
                stroke="#fefefe" fill="#fefefe"/>
        </g>
        <g latexdraw:type="rectangle" id="id328">
            <rect x="416.3142857142857" y="575.9575757575758"
                width="64.27359307359302" height="34.36363636363649"
                latexdraw:borderPos="outer" stroke-width="2.0"
                stroke="#015ec0" fill="#015fc0"/>
        </g>
        <g latexdraw:type="text" id="id177" fill="#fefefe" latexdraw:position="bl">
            <text x="418.1298865764044" y="593.113043478261"><![CDATA[Gajardo]]></text>
        </g>
        <g latexdraw:type="rectangle" id="id373">
            <rect x="384.4130434782607" y="808.2575757575755"
                width="83.74440052700913" height="31.252525252525174"
                latexdraw:borderPos="outer" stroke-width="2.0"
                stroke="#015ec0" fill="#015fc0"/>
        </g>
        <g latexdraw:type="rectangle" id="id392">
            <rect x="542.4352253233797" y="762.2320278496725"
                width="88.23652667914985" height="14.363636363636488"
                latexdraw:borderPos="outer" stroke-width="2.0"
                stroke="#fefefe" fill="#fefefe"/>
        </g>
        <g latexdraw:type="rectangle" id="id426">
            <rect x="589.9779710262869" y="613.424242424242"
                width="96.56565656565658" height="14.363636363636488"
                latexdraw:borderPos="outer" stroke-width="2.0"
                stroke="#fefefe" fill="#fefefe"/>
        </g>
        <g latexdraw:type="text" id="id98" fill="black" latexdraw:position="bl">
            <text x="414.2857142857142" y="412.38095238095235"><![CDATA[$\mathcal{U}$]]></text>
        </g>
        <g latexdraw:type="text" id="id201" fill="#fefefe" latexdraw:position="bl">
            <text x="343.4086956521735" y="660.7826086956521"><![CDATA[Morita]]></text>
        </g>
        <g latexdraw:type="text" id="id139" fill="black" latexdraw:position="bl">
            <text x="234.78260869565216" y="765.2173913043478"><![CDATA[reversible]]></text>
        </g>
        <g latexdraw:type="text" id="id142" fill="#fefefe" latexdraw:position="bl">
            <text x="406.7852511198624" y="823.8786163333879"><![CDATA[Time ]]></text>
        </g>
        <g latexdraw:type="text" id="id158" fill="#fefefe" latexdraw:position="bl">
            <text x="386.7852511198624" y="839.6342885488797"><![CDATA[symmetric]]></text>
        </g>
        <g latexdraw:type="text" id="id235" fill="black" latexdraw:position="bl">
            <text x="544.0534973144531" y="775.6638645269929"><![CDATA[Maldonado]]></text>
        </g>
        <g latexdraw:type="text" id="id133" fill="black" latexdraw:position="bl">
            <text x="589.5108164911685" y="626.086956521739"><![CDATA[Conservative]]></text>
        </g>
        <g latexdraw:type="text" id="id178" fill="#fefefe" latexdraw:position="bl">
            <text x="417.8531400966183" y="605.5974235104669"><![CDATA[Moreira ]]></text>
        </g>
        <g latexdraw:type="text" id="id189" fill="black" latexdraw:position="bl">
            <text x="136.36363636363615" y="825.4545454545452"><![CDATA[CA]]></text>
        </g>
        <g latexdraw:type="bezierCurve" id="id123">
            <path
                d="M 367.56756756756744 459.45945945945925 C 319.2558205875048 472.34259198747577 345.237963161712 392.9538660682423 372.9729729729728 351.3513513513512 C 400.7079827842336 309.7488366344601 456.55093490123903 279.79211278602816 454.0540540540539 329.72972972972957 "
                stroke-width="2.0" stroke="black" fill="none"
                latexdraw:rotationAngle="0.0" marker-end="url(#arrow1-123)"/>
        </g>
        <g latexdraw:type="rectangle" id="id472">
            <rect x="351.0" y="346.7575757575755"
                width="66.78787878787853" height="24.363636363636488"
                latexdraw:borderPos="outer" stroke-width="2.0"
                stroke="#fefefe" fill="#fefefe"/>
        </g>
        <g latexdraw:type="text" id="id127" fill="black" latexdraw:position="bl">
            <text x="351.3513513513512" y="366.7567567567566"><![CDATA[Moreira]]></text>
        </g>
    </g>
    <defs>
        <pattern latexdraw:type="vlines"
            latexdraw:rotationAngle="0.7853981633974483"
            latexdraw:size="7.055555555555555"
            patternUnits="userSpaceOnUse" id="pattern64" x="0" y="0"
            width="770" height="850">
            <g stroke="#45ff00" stroke-width="1.5" stroke-dasharray="none">
                <path d="M 420.0 222.09938270030315 L 432.0993827003031 210.0 M 420.0 234.1987654006063 L 444.19876540060625 210.0 M 420.0 246.29814810090946 L 456.2981481009094 210.0 M 420.0 258.3975308012126 L 468.3975308012125 210.0 M 420.0 270.49691350151573 L 480.4969135015156 210.0 M 420.0 282.59629620181886 L 492.59629620181875 210.0 M 420.0 294.695678902122 L 504.69567890212187 210.0 M 420.0 306.7950616024251 L 516.795061602425 210.0 M 420.0 318.89444430272823 L 528.8944443027282 210.0 M 420.0 330.99382700303136 L 540.9938270030314 210.0 M 420.0 343.0932097033345 L 553.0932097033345 210.0 M 420.0 355.1925924036376 L 565.1925924036377 210.0 M 420.0 367.29197510394073 L 577.2919751039409 210.0 M 420.0 379.39135780424385 L 589.3913578042441 210.0 M 420.0 391.490740504547 L 601.4907405045473 210.0 M 420.0 403.5901232048501 L 613.5901232048504 210.0 M 420.0 415.6895059051532 L 625.6895059051536 210.0 M 420.0 427.78888860545635 L 637.7888886054568 210.0 M 420.0 439.8882713057595 L 649.88827130576 210.0 M 420.0 451.9876540060626 L 661.9876540060632 210.0 M 420.0 464.0870367063657 L 674.0870367063663 210.0 M 420.0 476.18641940666885 L 686.1864194066695 210.0 M 420.0 488.28580210697197 L 698.2858021069727 210.0 M 420.0 500.3851848072751 L 710.3851848072759 210.0 M 420.0 512.4845675075783 L 722.4845675075791 210.0 M 420.0 524.5839502078815 L 734.5839502078823 210.0 M 420.0 536.6833329081846 L 746.6833329081854 210.0 M 420.0 548.7827156084878 L 758.7827156084886 210.0 M 420.0 560.882098308791 L 770.8820983087918 210.0 M 420.0 572.9814810090942 L 782.981481009095 210.0 M 420.0 585.0808637093974 L 795.0808637093982 210.0 M 420.0 597.1802464097005 L 807.1802464097013 210.0 M 420.0 609.2796291100037 L 819.2796291100045 210.0 M 420.0 621.3790118103069 L 831.3790118103077 210.0 M 420.0 633.4783945106101 L 843.4783945106109 210.0 M 420.0 645.5777772109133 L 855.5777772109141 210.0 M 420.0 657.6771599112164 L 867.6771599112172 210.0 M 420.0 669.7765426115196 L 879.7765426115204 210.0 M 420.0 681.8759253118228 L 891.8759253118236 210.0 M 420.0 693.975308012126 L 903.9753080121268 210.0 M 420.0 706.0746907124292 L 916.07469071243 210.0 M 420.0 718.1740734127324 L 928.1740734127332 210.0 M 420.0 730.2734561130355 L 940.2734561130363 210.0 M 420.0 742.3728388133387 L 952.3728388133395 210.0 M 420.0 754.4722215136419 L 964.4722215136427 210.0 M 420.0 766.5716042139451 L 976.5716042139459 210.0 M 420.0 778.6709869142483 L 988.670986914249 210.0 M 420.0 790.7703696145514 L 1000.7703696145522 210.0 M 420.0 802.8697523148546 L 1012.8697523148554 210.0 M 420.0 814.9691350151578 L 1024.9691350151586 210.0 M 420.0 827.068517715461 L 1037.0685177154617 210.0 M 420.0 839.1679004157642 L 1049.1679004157647 210.0 M 420.0 851.2672831160673 L 1061.2672831160678 210.0 M 420.0 863.3666658163705 L 1073.3666658163709 210.0 M 420.0 875.4660485166737 L 1085.466048516674 210.0 M 420.0 887.5654312169769 L 1097.565431216977 210.0 M 420.0 899.6648139172801 L 1109.66481391728 210.0 M 420.0 911.7641966175833 L 1121.7641966175831 210.0 M 420.0 923.8635793178864 L 1133.8635793178862 210.0 M 420.0 935.9629620181896 L 1145.9629620181893 210.0 M 420.0 948.0623447184928 L 1158.0623447184923 210.0 M 420.0 960.161727418796 L 1170.1617274187954 210.0 M 420.0 972.2611101190992 L 1182.2611101190985 210.0 M 420.0 984.3604928194023 L 1194.3604928194015 210.0 M 420.0 996.4598755197055 L 1206.4598755197046 210.0 M 420.0 1008.5592582200087 L 1218.5592582200077 210.0 M 420.0 1020.6586409203119 L 1230.6586409203107 210.0 M 420.0 1032.758023620615 L 1242.7580236206138 210.0 M 420.0 1044.857406320918 L 1254.8574063209169 210.0 M 420.0 1056.956789021221 L 1266.95678902122 210.0 M 420.0 1069.0561717215242 L 1279.056171721523 210.0 M 420.0 1081.1555544218272 L 1291.155554421826 210.0 M 420.0 1093.2549371221303 L 1303.2549371221291 210.0 M 420.0 1105.3543198224334 L 1315.3543198224322 210.0 M 420.0 1117.4537025227364 L 1327.4537025227353 210.0 M 420.0 1129.5530852230395 L 1339.5530852230384 210.0 M 420.0 1141.6524679233426 L 1351.6524679233414 210.0 M 420.0 1153.7518506236456 L 1363.7518506236445 210.0 M 420.0 1165.8512333239487 L 1375.8512333239476 210.0 M 420.0 1177.9506160242518 L 1387.9506160242506 210.0 M 420.0 1190.0499987245548 L 1400.0499987245537 210.0 M 420.0 1202.149381424858 L 1412.1493814248568 210.0 M 420.0 1214.248764125161 L 1424.2487641251598 210.0 M 420.0 1226.348146825464 L 1436.348146825463 210.0 M 420.0 1238.447529525767 L 1448.447529525766 210.0 M 420.0 1250.5469122260702 L 1460.546912226069 210.0 M 420.0 1262.6462949263732 L 1472.646294926372 210.0 M 420.0 1274.7456776266763 L 1484.7456776266752 210.0 M 420.0 1286.8450603269794 L 1496.8450603269782 210.0 M 420.0 1298.9444430272824 L 1508.9444430272813 210.0 M 420.0 1311.0438257275855 L 1521.0438257275844 210.0 M 420.0 1323.1432084278886 L 1533.1432084278874 210.0 M 420.0 1335.2425911281916 L 1545.2425911281905 210.0 M 420.0 1347.3419738284947 L 1557.3419738284936 210.0 M 420.0 1359.4413565287978 L 1569.4413565287966 210.0 M 420.0 1371.5407392291008 L 1581.5407392290997 210.0 M 420.0 1383.640121929404 L 1593.6401219294028 210.0 M 420.0 1395.739504629707 L 1605.7395046297058 210.0 M 420.0 1407.83888733001 L 1617.838887330009 210.0 M 420.0 1419.938270030313 L 1629.938270030312 210.0 "/>
            </g>
        </pattern>
        <pattern latexdraw:type="vlines"
            latexdraw:rotationAngle="-0.7853981633974483"
            latexdraw:size="7.055555555555555"
            patternUnits="userSpaceOnUse" id="pattern56" x="0" y="0"
            width="674" height="830">
            <g stroke="red" stroke-width="1.5" stroke-dasharray="none">
                <path d="M 190.00000000000026 817.9006172996975 L 202.0993827003034 830.0000000000007 M 190.00000000000026 805.8012345993943 L 214.19876540060656 830.0000000000007 M 190.00000000000026 793.7018518990911 L 226.2981481009097 830.0000000000007 M 190.00000000000026 781.602469198788 L 238.39753080121287 830.0000000000007 M 190.00000000000026 769.5030864984848 L 250.49691350151602 830.0000000000007 M 190.00000000000026 757.4037037981816 L 262.59629620181914 830.0000000000007 M 190.00000000000026 745.3043210978784 L 274.69567890212227 830.0000000000007 M 190.00000000000026 733.2049383975752 L 286.7950616024254 830.0000000000007 M 190.00000000000026 721.105555697272 L 298.8944443027285 830.0000000000007 M 190.00000000000026 709.0061729969689 L 310.99382700303164 830.0000000000007 M 190.00000000000026 696.9067902966657 L 323.09320970333476 830.0000000000007 M 190.00000000000026 684.8074075963625 L 335.1925924036379 830.0000000000007 M 190.00000000000026 672.7080248960593 L 347.291975103941 830.0000000000007 M 190.00000000000026 660.6086421957561 L 359.39135780424414 830.0000000000007 M 190.00000000000026 648.509259495453 L 371.49074050454726 830.0000000000007 M 190.00000000000026 636.4098767951498 L 383.5901232048504 830.0000000000007 M 190.00000000000026 624.3104940948466 L 395.6895059051535 830.0000000000007 M 190.00000000000026 612.2111113945434 L 407.78888860545663 830.0000000000007 M 190.00000000000026 600.1117286942402 L 419.88827130575976 830.0000000000007 M 190.00000000000026 588.0123459939371 L 431.9876540060629 830.0000000000007 M 190.00000000000026 575.9129632936339 L 444.087036706366 830.0000000000007 M 190.00000000000026 563.8135805933307 L 456.18641940666913 830.0000000000007 M 190.00000000000026 551.7141978930275 L 468.28580210697226 830.0000000000007 M 190.00000000000026 539.6148151927243 L 480.3851848072754 830.0000000000007 M 190.00000000000026 527.5154324924212 L 492.4845675075785 830.0000000000007 M 190.00000000000026 515.416049792118 L 504.5839502078816 830.0000000000007 M 190.00000000000026 503.31666709181485 L 516.6833329081848 830.0000000000007 M 190.00000000000026 491.2172843915117 L 528.7827156084879 830.0000000000007 M 190.00000000000026 479.1179016912086 L 540.8820983087911 830.0000000000007 M 190.00000000000026 467.0185189909055 L 552.9814810090943 830.0000000000007 M 190.00000000000026 454.91913629060235 L 565.0808637093975 830.0000000000007 M 190.00000000000026 442.81975359029923 L 577.1802464097007 830.0000000000007 M 190.00000000000026 430.7203708899961 L 589.2796291100038 830.0000000000007 M 190.00000000000026 418.620988189693 L 601.379011810307 830.0000000000007 M 190.00000000000026 406.52160548938986 L 613.4783945106102 830.0000000000007 M 190.00000000000026 394.42222278908673 L 625.5777772109134 830.0000000000007 M 190.00000000000026 382.3228400887836 L 637.6771599112166 830.0000000000007 M 190.00000000000026 370.2234573884805 L 649.7765426115197 830.0000000000007 M 190.00000000000026 358.12407468817736 L 661.8759253118229 830.0000000000007 M 190.00000000000026 346.02469198787423 L 673.9753080121261 830.0000000000007 M 190.00000000000026 333.9253092875711 L 686.0746907124293 830.0000000000007 M 190.00000000000026 321.825926587268 L 698.1740734127325 830.0000000000007 M 190.00000000000026 309.72654388696486 L 710.2734561130356 830.0000000000007 M 190.00000000000026 297.62716118666174 L 722.3728388133388 830.0000000000007 M 190.00000000000026 285.5277784863586 L 734.472221513642 830.0000000000007 M 190.00000000000026 273.4283957860555 L 746.5716042139452 830.0000000000007 M 190.00000000000026 261.32901308575236 L 758.6709869142484 830.0000000000007 M 190.00000000000026 249.2296303854492 L 770.7703696145516 830.0000000000007 M 190.00000000000026 237.13024768514606 L 782.8697523148547 830.0000000000007 M 190.00000000000026 225.0308649848429 L 794.9691350151579 830.0000000000007 M 190.00000000000026 212.93148228453975 L 807.0685177154611 830.0000000000007 M 190.00000000000026 200.8320995842366 L 819.1679004157643 830.0000000000007 M 190.00000000000026 188.73271688393345 L 831.2672831160675 830.0000000000007 M 190.00000000000026 176.6333341836303 L 843.3666658163706 830.0000000000007 M 190.00000000000026 164.53395148332714 L 855.4660485166738 830.0000000000007 M 190.00000000000026 152.434568783024 L 867.565431216977 830.0000000000007 M 190.00000000000026 140.33518608272084 L 879.6648139172802 830.0000000000007 M 190.00000000000026 128.23580338241769 L 891.7641966175834 830.0000000000007 M 190.00000000000026 116.13642068211453 L 903.8635793178865 830.0000000000007 M 190.00000000000026 104.03703798181138 L 915.9629620181897 830.0000000000007 M 190.00000000000026 91.93765528150823 L 928.0623447184929 830.0000000000007 M 190.00000000000026 79.83827258120508 L 940.1617274187961 830.0000000000007 M 190.00000000000026 67.73888988090192 L 952.2611101190993 830.0000000000007 M 190.00000000000026 55.63950718059878 L 964.3604928194025 830.0000000000007 M 190.00000000000026 43.54012448029563 L 976.4598755197056 830.0000000000007 M 190.00000000000026 31.440741779992486 L 988.5592582200088 830.0000000000007 M 190.00000000000026 19.34135907968934 L 1000.658640920312 830.0000000000007 M 190.00000000000026 7.241976379386193 L 1012.7580236206152 830.0000000000007 M 190.00000000000026 -4.8574063209169545 L 1024.8574063209182 830.0000000000007 M 190.00000000000026 -16.956789021220104 L 1036.9567890212213 830.0000000000007 M 190.00000000000026 -29.05617172152325 L 1049.0561717215244 830.0000000000007 M 190.00000000000026 -41.155554421826395 L 1061.1555544218274 830.0000000000007 M 190.00000000000026 -53.25493712212954 L 1073.2549371221305 830.0000000000007 M 190.00000000000026 -65.35431982243269 L 1085.3543198224336 830.0000000000007 M 190.00000000000026 -77.45370252273584 L 1097.4537025227366 830.0000000000007 M 190.00000000000026 -89.55308522303899 L 1109.5530852230397 830.0000000000007 M 190.00000000000026 -101.65246792334214 L 1121.6524679233428 830.0000000000007 M 190.00000000000026 -113.7518506236453 L 1133.7518506236459 830.0000000000007 M 190.00000000000026 -125.85123332394845 L 1145.851233323949 830.0000000000007 M 190.00000000000026 -137.9506160242516 L 1157.950616024252 830.0000000000007 M 190.00000000000026 -150.04999872455474 L 1170.049998724555 830.0000000000007 M 190.00000000000026 -162.1493814248579 L 1182.1493814248581 830.0000000000007 M 190.00000000000026 -174.24876412516105 L 1194.2487641251612 830.0000000000007 M 190.00000000000026 -186.3481468254642 L 1206.3481468254643 830.0000000000007 M 190.00000000000026 -198.44752952576735 L 1218.4475295257673 830.0000000000007 M 190.00000000000026 -210.5469122260705 L 1230.5469122260704 830.0000000000007 M 190.00000000000026 -222.64629492637366 L 1242.6462949263735 830.0000000000007 M 190.00000000000026 -234.7456776266768 L 1254.7456776266765 830.0000000000007 M 190.00000000000026 -246.84506032697996 L 1266.8450603269796 830.0000000000007 M 190.00000000000026 -258.9444430272831 L 1278.9444430272827 830.0000000000007 M 190.00000000000026 -271.04382572758624 L 1291.0438257275857 830.0000000000007 M 190.00000000000026 -283.14320842788936 L 1303.1432084278888 830.0000000000007 M 190.00000000000026 -295.2425911281925 L 1315.2425911281919 830.0000000000007 M 190.00000000000026 -307.3419738284956 L 1327.341973828495 830.0000000000007 M 190.00000000000026 -319.44135652879874 L 1339.441356528798 830.0000000000007 M 190.00000000000026 -331.54073922910186 L 1351.540739229101 830.0000000000007 M 190.00000000000026 -343.640121929405 L 1363.6401219294041 830.0000000000007 M 190.00000000000026 -355.7395046297081 L 1375.7395046297072 830.0000000000007 M 190.00000000000026 -367.83888733001123 L 1387.8388873300103 830.0000000000007 M 190.00000000000026 -379.93827003031436 L 1399.9382700303133 830.0000000000007 M 190.00000000000026 -392.0376527306175 L 1412.0376527306164 830.0000000000007 M 190.00000000000026 -404.1370354309206 L 1424.1370354309195 830.0000000000007 M 190.00000000000026 -416.23641813122373 L 1436.2364181312225 830.0000000000007 M 190.00000000000026 -428.33580083152685 L 1448.3358008315256 830.0000000000007 M 190.00000000000026 -440.43518353183 L 1460.4351835318287 830.0000000000007 M 190.00000000000026 -452.5345662321331 L 1472.5345662321317 830.0000000000007 M 190.00000000000026 -464.6339489324362 L 1484.6339489324348 830.0000000000007 M 190.00000000000026 -476.73333163273935 L 1496.7333316327379 830.0000000000007 M 190.00000000000026 -488.8327143330425 L 1508.832714333041 830.0000000000007 "/>
            </g>
        </pattern>
        <marker overflow="visible" orient="auto" id="arrow1-175">
            <path
                d="M 0.0 0.0 L -4.652083333333334 1.6614583333333335 L -4.652083333333334 0.0 L -4.652083333333334 -1.6614583333333335 z "
                latexdraw:arrSizeNum="2.0" fill="black"/>
        </marker>
        <marker overflow="visible" orient="auto" id="arrow1-199">
            <path
                d="M 0.0 0.0 L -4.652083333333334 1.6614583333333335 L -4.652083333333334 0.0 L -4.652083333333334 -1.6614583333333335 z "
                latexdraw:arrSizeNum="2.0" fill="black"/>
        </marker>
        <marker overflow="visible" orient="auto" id="arrow1-232">
            <path
                d="M 0.0 0.0 L -4.652083333333334 1.6614583333333335 L -4.652083333333334 0.0 L -4.652083333333334 -1.6614583333333335 z "
                latexdraw:arrSizeNum="2.0" fill="black"/>
        </marker>
        <marker overflow="visible" orient="auto" id="arrow1-123">
            <path
                d="M 0.0 0.0 L -4.652083333333334 1.6614583333333335 L -4.652083333333334 0.0 L -4.652083333333334 -1.6614583333333335 z "
                latexdraw:arrSizeNum="2.0" fill="black"/>
        </marker>
    </defs>
    <metadata>
        <latexdraw:metadata>
            <latexdraw:latexIncludes><![CDATA[]]></latexdraw:latexIncludes>
            <latexdraw:displayXScale>true</latexdraw:displayXScale>
            <latexdraw:displayYScale>true</latexdraw:displayYScale>
            <latexdraw:unit>CM</latexdraw:unit>
            <latexdraw:zoom>0.95</latexdraw:zoom>
            <latexdraw:magneticGridStyle>CUSTOMISED</latexdraw:magneticGridStyle>
            <latexdraw:gridGap>10</latexdraw:gridGap>
            <latexdraw:magneticGrid>false</latexdraw:magneticGrid>
            <latexdraw:version>3.1.0</latexdraw:version>
            <latexdraw:size>
                <latexdraw:width>1440</latexdraw:width>
                <latexdraw:height>876</latexdraw:height>
            </latexdraw:size>
            <latexdraw:position>
                <latexdraw:x>1366.0</latexdraw:x>
                <latexdraw:y>24.0</latexdraw:y>
            </latexdraw:position>
        </latexdraw:metadata>
    </metadata>
</svg>
